<?xml version="1.0" encoding="UTF-8"?>
<svg id="Layer_2" data-name="Layer 2" xmlns="http://www.w3.org/2000/svg" viewBox="0 0 206.75 111.72">
  <defs>
    <style>
      .cls-1, .cls-2, .cls-3 {
        fill: none;
      }

      .cls-2 {
        stroke-miterlimit: 10;
      }

      .cls-2, .cls-3 {
        stroke: #fff;
        stroke-width: 1.69px;
      }

      .cls-4 {
        fill: #fff;
      }
    </style>
  </defs>
  <g id="Layer_2-2" data-name="Layer 2">
    <g id="Layer_1-2" data-name="Layer 1-2">
      <g>
        <g>
          <path class="cls-4" d="m75.42,35.78c1.23,0,2.27.13,3.14.35.87.23,1.58.56,2.14,1s.97.97,1.23,1.58.38,1.33.38,2.11c0,.45-.07.89-.21,1.31-.13.44-.35.82-.65,1.17-.28.35-.65.69-1.1,1s-.94.54-1.55.73c2.73.59,4.08,2.01,4.08,4.34,0,.82-.15,1.55-.45,2.24s-.73,1.28-1.33,1.76-1.31.87-2.14,1.14-1.83.41-2.93.41h-7.04v-19.23l6.44.04h0v.03Zm-3.27,2.42v6h3.11c1.33,0,2.32-.25,2.99-.76s1-1.25,1-2.21c0-1.04-.31-1.82-.92-2.3s-1.58-.72-2.9-.72h-3.27,0Zm3.86,14.3c.72,0,1.31-.07,1.79-.25.48-.15.89-.38,1.2-.66s.54-.62.66-1,.21-.79.21-1.25c0-.92-.31-1.63-.92-2.14s-1.58-.79-2.93-.79h-3.86v6.1h3.86Z"/>
          <path class="cls-4" d="m88.01,48.4c.03.76.15,1.42.35,2.01.21.56.48,1.04.82,1.41.34.38.73.66,1.23.84s1,.28,1.58.28,1.04-.04,1.45-.21c.41-.13.76-.28,1.07-.44s.56-.31.76-.44.41-.21.59-.21c.23,0,.41.1.54.25l.82,1.04c-.34.41-.72.73-1.14,1.03s-.87.51-1.35.66-.97.31-1.48.38-1,.1-1.48.1c-.94,0-1.82-.15-2.63-.48s-1.51-.79-2.1-1.41-1.04-1.38-1.38-2.27c-.34-.92-.51-1.94-.51-3.14,0-.94.15-1.82.45-2.65s.72-1.53,1.28-2.14,1.23-1.07,2.01-1.42c.79-.35,1.72-.54,2.7-.54.84,0,1.61.13,2.32.41.72.28,1.33.66,1.83,1.2s.92,1.17,1.2,1.94.44,1.63.44,2.61c0,.44-.04.73-.15.89s-.28.23-.54.23l-8.7.04h0v.03Zm6.83-1.76c0-.48-.07-.92-.21-1.33s-.34-.76-.62-1.07c-.25-.31-.59-.54-1-.72s-.84-.25-1.38-.25c-1.04,0-1.86.31-2.45.89-.59.59-.97,1.42-1.13,2.51l6.76-.03h.01Z"/>
          <g>
            <path class="cls-4" d="m110.04,35.78c1.25,0,2.35.15,3.27.44s1.69.72,2.27,1.23c.59.54,1.04,1.17,1.33,1.92.31.73.44,1.55.44,2.45s-.15,1.76-.45,2.52c-.31.76-.76,1.41-1.38,1.97s-1.38.97-2.3,1.28-1.97.45-3.2.45h-2.86v6.94h-3.11v-19.23l6,.03h-.01Zm0,9.78c.69,0,1.31-.1,1.83-.25s.97-.44,1.33-.73c.35-.34.62-.72.79-1.17s.25-.97.25-1.55-.07-1.07-.25-1.51-.44-.82-.79-1.13-.79-.54-1.33-.72-1.14-.25-1.86-.25h-2.86v7.35l2.89-.03h0Z"/>
            <path class="cls-4" d="m119.07,43.26c1.53-1.42,3.37-2.14,5.49-2.14.79,0,1.48.13,2.1.38s1.13.62,1.53,1.07.73,1.03.94,1.63c.21.65.34,1.33.34,2.11v8.65h-1.28c-.28,0-.48-.04-.65-.13s-.25-.25-.35-.51l-.28-1.1c-.35.31-.69.59-1.03.84s-.69.45-1.04.62-.73.31-1.17.38-.87.13-1.38.13c-.56,0-1.07-.07-1.53-.23-.48-.15-.89-.38-1.23-.69-.35-.31-.62-.69-.82-1.14-.21-.45-.31-1-.31-1.61,0-.54.15-1.04.44-1.53s.73-.94,1.38-1.33c.65-.41,1.48-.72,2.55-.97s2.35-.41,3.9-.44v-.92c0-.97-.21-1.72-.65-2.2-.41-.48-1.03-.72-1.83-.72-.56,0-1.03.07-1.38.21-.38.13-.69.28-.97.45-.28.15-.51.31-.73.45s-.44.21-.69.21c-.21,0-.35-.04-.51-.15-.13-.1-.25-.23-.34-.38l-.51-.97v.04Zm7.63,5.76c-1.03.03-1.89.13-2.58.25s-1.28.28-1.72.48-.73.44-.94.72c-.21.28-.28.59-.28.92,0,.31.04.59.15.82s.25.41.44.56c.18.15.41.25.65.31s.51.1.82.1c.73,0,1.38-.15,1.94-.41.54-.28,1.07-.69,1.55-1.23l-.03-2.52h0Z"/>
            <path class="cls-4" d="m135.52,43.91c.44-.87.94-1.53,1.55-2.04.62-.48,1.33-.73,2.17-.73.31,0,.56.03.82.1s.48.15.69.31l-.21,2.17c-.03.15-.1.25-.18.31s-.18.07-.31.07-.34-.03-.56-.07c-.25-.04-.51-.07-.79-.07-.41,0-.73.04-1.07.18s-.59.28-.82.51c-.25.23-.45.48-.65.82-.18.31-.35.69-.51,1.1v8.45h-2.86v-13.61h1.66c.31,0,.51.04.65.15.1.1.21.31.23.59l.18,1.79h0Z"/>
            <path class="cls-4" d="m147.03,55.19c-1.13,0-1.99-.31-2.61-.94s-.92-1.53-.92-2.68v-7.92h-1.48c-.15,0-.31-.04-.41-.15-.1-.1-.18-.25-.18-.45v-1.17l2.2-.31.65-3.93c.04-.15.13-.28.23-.35s.25-.15.44-.15h1.48v4.44h3.78v2.07h-3.78v7.73c0,.48.13.87.35,1.13s.56.38.97.38c.23,0,.41-.03.56-.07s.31-.13.41-.18.21-.13.31-.18c.07-.04.18-.07.25-.07.15,0,.28.1.38.28l.84,1.41c-.44.38-.97.69-1.58.89-.65.15-1.25.25-1.89.25v-.03Z"/>
          </g>
          <g>
            <path class="cls-4" d="m74.38,64.73c1,0,1.92.15,2.73.48.82.34,1.51.79,2.1,1.41.56.62,1.03,1.33,1.33,2.2s.45,1.83.45,2.9-.15,2.04-.45,2.9-.76,1.61-1.33,2.2c-.56.62-1.28,1.07-2.1,1.41s-1.73.48-2.73.48-1.92-.15-2.73-.48-1.51-.79-2.1-1.41-1.03-1.35-1.33-2.2-.45-1.83-.45-2.9.15-2.04.45-2.9.76-1.58,1.33-2.2c.59-.62,1.28-1.07,2.1-1.41s1.73-.48,2.73-.48Zm0,11.76c1.23,0,2.14-.41,2.73-1.23s.89-1.99.89-3.52-.31-2.7-.89-3.55-1.51-1.25-2.73-1.25-2.17.41-2.79,1.25-.89,2.01-.89,3.55.31,2.7.89,3.52c.62.82,1.53,1.23,2.79,1.23Z"/>
            <path class="cls-4" d="m85.35,78.55v-11.34l-1.33-.18c-.23-.04-.41-.13-.54-.23s-.21-.28-.21-.48v-1.17h2.1v-1.14c0-.76.1-1.48.34-2.07s.56-1.13.97-1.55c.44-.44.94-.73,1.53-.97s1.28-.34,2.04-.34c.31,0,.62.03.89.07s.56.1.82.21l-.04,1.42c-.03.23-.13.38-.35.44s-.48.07-.82.07c-.41,0-.76.04-1.07.15-.31.1-.59.25-.82.48-.23.23-.41.51-.51.87-.13.35-.18.82-.18,1.35v1.04h3.73v2.07h-3.62v11.35h-2.9v-.07h0v.03Z"/>
          </g>
          <g>
            <path class="cls-4" d="m118.65,78.55h-2.79c-.56,0-.94-.21-1.2-.65l-4.49-6.48c-.15-.23-.31-.38-.48-.48-.18-.1-.44-.15-.79-.15h-1.73v7.73h-3.11v-19.23h5.66c1.25,0,2.35.13,3.27.38s1.66.62,2.24,1.1,1.03,1.04,1.31,1.72.44,1.41.44,2.21c0,.66-.1,1.31-.31,1.86-.21.59-.48,1.1-.87,1.58s-.84.89-1.41,1.23c-.56.35-1.17.62-1.89.82.38.23.72.56,1,.97l5.16,7.38h-.01Zm-9.03-10c.72,0,1.33-.07,1.86-.25s.97-.41,1.33-.73.62-.69.79-1.13.25-.92.25-1.42c0-1.04-.35-1.83-1.04-2.41s-1.73-.82-3.14-.82h-2.52v6.76h2.48-.01Z"/>
            <path class="cls-4" d="m121.63,71.97c.03.76.15,1.42.35,2.01.21.56.48,1.03.82,1.41s.73.65,1.23.84c.48.18,1,.28,1.58.28s1.04-.04,1.45-.21c.41-.13.76-.28,1.07-.44s.56-.31.76-.44.41-.21.59-.21c.23,0,.41.1.54.25l.82,1.04c-.34.41-.72.73-1.14,1.03s-.87.51-1.35.66c-.48.18-.97.31-1.48.38s-1,.1-1.48.1c-.94,0-1.82-.15-2.63-.48s-1.51-.79-2.1-1.41-1.04-1.38-1.38-2.27-.51-1.94-.51-3.14c0-.94.15-1.82.45-2.65s.72-1.53,1.28-2.14,1.23-1.07,2.01-1.42c.79-.35,1.72-.54,2.7-.54.84,0,1.61.13,2.32.41.72.28,1.33.66,1.83,1.2s.92,1.17,1.2,1.92c.28.76.44,1.63.44,2.61,0,.44-.04.73-.15.89s-.28.23-.54.23l-8.7.07h0Zm6.83-1.75c0-.48-.07-.92-.21-1.33s-.34-.76-.62-1.07c-.25-.31-.59-.54-1-.72s-.84-.25-1.38-.25c-1.04,0-1.86.31-2.45.89s-.97,1.42-1.13,2.51l6.76-.03h.01Z"/>
            <path class="cls-4" d="m141.85,67.42c-.07.13-.15.21-.23.25s-.21.07-.34.07c-.15,0-.31-.04-.48-.13-.18-.1-.38-.21-.65-.31s-.54-.23-.84-.31c-.34-.1-.72-.13-1.14-.13-.35,0-.69.04-.97.13s-.54.21-.73.35-.35.34-.45.54c-.1.21-.15.44-.15.66,0,.31.1.59.31.79s.45.41.76.56.69.31,1.1.41.82.25,1.25.41.84.31,1.25.48c.41.18.76.41,1.1.69s.59.62.76,1,.31.87.31,1.41c0,.65-.1,1.23-.35,1.79-.23.54-.56,1.03-1.03,1.41s-1,.72-1.66.94-1.42.34-2.27.34c-.45,0-.92-.04-1.38-.13-.44-.07-.87-.21-1.25-.35-.41-.15-.76-.34-1.1-.54s-.65-.44-.92-.66l.66-1.1c.07-.13.18-.23.31-.31.13-.07.28-.1.45-.1s.38.04.56.18.41.25.65.38.54.28.89.38.79.18,1.31.18c.44,0,.79-.04,1.1-.15s.56-.25.76-.41.35-.38.45-.62.15-.45.15-.73c0-.35-.1-.65-.31-.84s-.45-.41-.79-.56-.69-.31-1.1-.44-.84-.25-1.25-.41c-.44-.15-.84-.31-1.25-.48s-.79-.44-1.1-.72c-.34-.28-.59-.65-.79-1.04s-.31-.92-.31-1.51c0-.54.1-1.04.34-1.55.21-.48.54-.92.97-1.31.44-.38.94-.66,1.55-.89s1.33-.34,2.14-.34c.92,0,1.73.15,2.51.44.73.28,1.38.69,1.89,1.2l-.69,1.07h0Z"/>
            <path class="cls-4" d="m147.47,71.97c.03.76.15,1.42.35,2.01.21.56.48,1.03.82,1.41s.73.65,1.23.84c.48.18,1,.28,1.58.28s1.04-.04,1.45-.21c.41-.13.76-.28,1.07-.44s.56-.31.76-.44.41-.21.59-.21c.23,0,.41.1.54.25l.82,1.04c-.34.41-.72.73-1.14,1.03s-.87.51-1.35.66c-.48.18-.97.31-1.48.38s-1,.1-1.48.1c-.94,0-1.82-.15-2.63-.48s-1.51-.79-2.1-1.41-1.04-1.38-1.38-2.27-.51-1.94-.51-3.14c0-.94.15-1.82.45-2.65s.72-1.53,1.28-2.14,1.23-1.07,2.01-1.42c.79-.35,1.72-.54,2.7-.54.84,0,1.61.13,2.32.41.72.28,1.33.66,1.83,1.2s.92,1.17,1.2,1.92c.28.76.44,1.63.44,2.61,0,.44-.04.73-.15.89s-.28.23-.54.23l-8.7.07h0Zm6.83-1.75c0-.48-.07-.92-.21-1.33s-.34-.76-.62-1.07-.59-.54-1-.72-.84-.25-1.38-.25c-1.04,0-1.86.31-2.45.89s-.97,1.42-1.13,2.51l6.76-.03h.01Z"/>
            <path class="cls-4" d="m159.2,66.83c1.53-1.42,3.37-2.14,5.49-2.14.79,0,1.48.13,2.1.38s1.13.62,1.53,1.07.73,1.03.94,1.63.34,1.33.34,2.11v8.65h-1.28c-.28,0-.48-.04-.65-.13s-.25-.25-.35-.51l-.28-1.1c-.35.31-.69.59-1.03.84s-.69.45-1.04.62-.73.31-1.17.38-.87.13-1.38.13c-.56,0-1.07-.07-1.53-.23-.48-.15-.89-.38-1.23-.69-.35-.31-.62-.69-.82-1.14-.21-.45-.31-1-.31-1.61,0-.54.15-1.04.44-1.53s.73-.94,1.38-1.33,1.48-.72,2.55-.97,2.35-.41,3.9-.44v-.89c0-.97-.21-1.72-.65-2.2s-1.03-.72-1.83-.72c-.56,0-1.03.07-1.38.21-.38.13-.69.28-.97.45s-.51.31-.73.45-.44.21-.69.21c-.21,0-.35-.04-.51-.15-.13-.1-.25-.23-.34-.38l-.51-1v.04Zm7.63,5.76c-1.03.03-1.89.13-2.58.25s-1.28.28-1.72.48-.73.44-.94.72c-.21.28-.28.59-.28.89s.04.59.15.82.25.41.44.56.41.25.65.31.51.1.82.1c.73,0,1.38-.13,1.94-.41s1.07-.69,1.55-1.23l-.03-2.51h0Z"/>
            <path class="cls-4" d="m175.64,67.46c.44-.87.94-1.53,1.55-2.04.62-.48,1.33-.73,2.17-.73.31,0,.56.03.82.1s.48.15.69.31l-.21,2.17c-.03.15-.1.25-.18.31-.07.04-.18.07-.31.07s-.34-.03-.56-.07-.51-.07-.79-.07c-.41,0-.73.04-1.07.18s-.59.28-.82.51-.45.48-.65.82c-.18.31-.35.69-.51,1.1v8.45h-2.86v-13.61h1.66c.31,0,.51.04.65.15.1.1.21.31.23.59l.18,1.79h0Z"/>
            <path class="cls-4" d="m191.92,67.62c-.07.13-.18.21-.25.25s-.21.1-.35.1-.31-.04-.48-.15-.35-.23-.59-.35-.51-.25-.82-.35-.72-.15-1.2-.15c-.62,0-1.17.1-1.63.34s-.87.54-1.17.94-.56.92-.72,1.51-.23,1.25-.23,1.99.07,1.45.25,2.04.41,1.1.72,1.51.69.72,1.14.94.94.31,1.51.31,1-.07,1.35-.21.65-.28.87-.44.44-.31.59-.44.34-.21.54-.21c.23,0,.41.1.54.25l.82,1.04c-.34.41-.69.73-1.1,1.03-.41.28-.82.51-1.28.66-.44.18-.92.31-1.38.38-.48.07-.97.1-1.45.1-.84,0-1.63-.15-2.38-.48s-1.38-.76-1.92-1.38-.97-1.33-1.31-2.2c-.31-.87-.48-1.86-.48-2.96,0-1,.15-1.94.44-2.8s.69-1.61,1.25-2.21c.54-.62,1.23-1.13,2.04-1.45.82-.35,1.73-.54,2.8-.54,1,0,1.86.15,2.61.48.73.31,1.42.76,2.01,1.35l-.73,1.1h0Z"/>
            <path class="cls-4" d="m198.01,66.55c.56-.56,1.17-1,1.83-1.33s1.45-.51,2.35-.51c.73,0,1.41.13,1.97.38s1.04.62,1.42,1.04c.38.45.69,1,.87,1.63.21.65.31,1.33.31,2.1v8.65h-2.86v-8.62c0-.92-.21-1.63-.65-2.14s-1.07-.76-1.94-.76c-.65,0-1.23.15-1.79.44-.54.28-1.07.69-1.53,1.2v9.9h-2.86v-19.76h2.86v7.79h.01Z"/>
          </g>
        </g>
        <g>
          <path class="cls-1" d="m57.34,29.37h0c-.01,1-.06,1.97-.12,2.89-.06.69-.29,2.57-.72,4.74-1.58-1.33-3.05-1.95-4.49-1.95-1.7,0-3.33.87-5.06,2.42-1.89,1.69-4.36,2.71-7.08,2.71-1.76,0-3.42-.43-4.88-1.19-1.47-.76-2.73-1.86-3.68-3.18-1.61-2.23-3.23-3.14-4.71-3.14-.16,0-.32,0-.48.03h-.01c-1.1.16-2.14.78-3.08,1.72-1.06,1.06-2.45,1.76-4,1.94h0c-.29.34-.57.67-.84,1.03-1.77,2.42-3.52,3.42-5.15,3.42-1.41,0-2.73-.73-3.9-1.89-1.31-1.31-3.11-2.14-5.1-2.19-.4.09-.78.26-1.13.53-.48.38-.91.89-1.32,1.57-.21.34-.31.69-.38,1.07s-.1.76-.1,1.17c0,1.09.18,2.35.48,3.67.16.72.35,1.45.57,2.19.4,1.29.85,2.58,1.38,3.7.16.37.32.7.5,1.03-.18-.32-.34-.66-.5-1.03-.53-1.13-.98-2.41-1.38-3.7,1.83-1.94,3.83-3.84,6.23-4.27.25-.04.5-.06.75-.06,1.89,0,4,1.11,6.17,2.23,2.17,1.11,4.4,2.23,6.53,2.23.18,0,.34,0,.51-.01,4.24-.38,8.4-6.73,13.01-6.73s8.76,6.35,12.99,6.73c.18,0,.34.01.51.01,3.09,0,6.39-2.35,9.43-3.62-.04.26-.09.54-.15.82-.12.59-.25,1.2-.41,1.82-.45,1.77-1.07,3.55-1.75,5.02-.45.98-.91,1.82-1.45,2.45-.32.37-.65.69-1.1.88-.35.15-.69.21-1.03.23-.26.88-.56,1.76-.87,2.61.29-.87.59-1.73.87-2.61.34-.03.67-.1,1.03-.23.45-.19.78-.53,1.1-.88.54-.63,1-1.47,1.45-2.45.67-1.48,1.29-3.26,1.75-5.02.15-.6.29-1.23.41-1.82.06-.26.23-1,.26-1.26.13-.81.07-1.13.07-1.83,0-.45-.03-.88-.1-1.26-.09-.4-.19-.78-.43-1.14-.43-.65-.87-1.16-1.33-1.53-.04-.03-.1-.06-.15-.09,0-.04,0-.09.03-.13.43-2.19.66-4.05.72-4.74.06-.91.1-1.89.12-2.89"/>
          <path class="cls-2" d="m57.34,29.37h0c-.01,1-.06,1.97-.12,2.89-.06.69-.29,2.57-.72,4.74-1.58-1.33-3.05-1.95-4.49-1.95-1.7,0-3.33.87-5.06,2.42-1.89,1.69-4.36,2.71-7.08,2.71-1.76,0-3.42-.43-4.88-1.19-1.47-.76-2.73-1.86-3.68-3.18-1.61-2.23-3.23-3.14-4.71-3.14-.16,0-.32,0-.48.03h-.01c-1.1.16-2.14.78-3.08,1.72-1.06,1.06-2.45,1.76-4,1.94h0c-.29.34-.57.67-.84,1.03-1.77,2.42-3.52,3.42-5.15,3.42-1.41,0-2.73-.73-3.9-1.89-1.31-1.31-3.11-2.14-5.1-2.19-.4.09-.78.26-1.13.53-.48.38-.91.89-1.32,1.57-.21.34-.31.69-.38,1.07s-.1.76-.1,1.17c0,1.09.18,2.35.48,3.67.16.72.35,1.45.57,2.19.4,1.29.85,2.58,1.38,3.7.16.37.32.7.5,1.03-.18-.32-.34-.66-.5-1.03-.53-1.13-.98-2.41-1.38-3.7,1.83-1.94,3.83-3.84,6.23-4.27.25-.04.5-.06.75-.06,1.89,0,4,1.11,6.17,2.23,2.17,1.11,4.4,2.23,6.53,2.23.18,0,.34,0,.51-.01,4.24-.38,8.4-6.73,13.01-6.73s8.76,6.35,12.99,6.73c.18,0,.34.01.51.01,3.09,0,6.39-2.35,9.43-3.62-.04.26-.09.54-.15.82-.12.59-.25,1.2-.41,1.82-.45,1.77-1.07,3.55-1.75,5.02-.45.98-.91,1.82-1.45,2.45-.32.37-.65.69-1.1.88-.35.15-.69.21-1.03.23-.26.88-.56,1.76-.87,2.61.29-.87.59-1.73.87-2.61.34-.03.67-.1,1.03-.23.45-.19.78-.53,1.1-.88.54-.63,1-1.47,1.45-2.45.67-1.48,1.29-3.26,1.75-5.02.15-.6.29-1.23.41-1.82.06-.26.23-1,.26-1.26.13-.81.07-1.13.07-1.83,0-.45-.03-.88-.1-1.26-.09-.4-.19-.78-.43-1.14-.43-.65-.87-1.16-1.33-1.53-.04-.03-.1-.06-.15-.09,0-.04,0-.09.03-.13.43-2.19.66-4.05.72-4.74.06-.91.1-1.89.12-2.89"/>
          <path class="cls-1" d="m71.77,100.87c-1.5,0-3.02.87-4.75,2.79-1.91,2.13-4.68,3.46-7.76,3.46-1.54,0-2.99-.34-4.31-.92-1.32-.6-2.48-1.48-3.43-2.54-1.75-1.92-3.27-2.79-4.75-2.79-1.31,0-2.57.66-3.89,1.85-1.45,1.29-3.34,2.08-5.43,2.08h-.19.03c2.02.53,3.73,4.33,6.41,4.8.13.01.26.03.41.03,1.04,0,2.19-.62,3.37-1.22,1.19-.62,2.41-1.22,3.58-1.22h.28c2.3.21,4.61,3.68,7.1,3.68s4.8-3.48,7.1-3.68h.28c1.17,0,2.39.6,3.58,1.22,1.19.6,2.35,1.22,3.37,1.22.13,0,.28,0,.41-.03,2.68-.47.85-4.34,6.22-4.87.16-.04.48,0,.65,0h.01c-1.67-.19-3.21-.92-4.39-1.99-1.32-1.19-2.58-1.85-3.89-1.85m-42.33,1.97c-.76,0-1.22.37-1.22,1.5s.45,1.5,1.22,1.5c.69,0,1.64-.31,2.73-.6,1.09-.31,2.3-.62,3.53-.62h.09c-.73-.15-1.44-.4-2.08-.73-.04-.03-.1-.06-.15-.09-1.66-.35-3.14-.97-4.12-.97m55.68.87c-.85.51-1.79.85-2.8,1,1.41.19,2.74.65,3.81.92-.32-.66-.66-1.31-1.01-1.92"/>
          <path class="cls-2" d="m71.77,100.87c-1.5,0-3.02.87-4.75,2.79-1.91,2.13-4.68,3.46-7.76,3.46-1.54,0-2.99-.34-4.31-.92-1.32-.6-2.48-1.48-3.43-2.54-1.75-1.92-3.27-2.79-4.75-2.79-1.31,0-2.57.66-3.89,1.85-1.45,1.29-3.34,2.08-5.43,2.08h-.19.03c2.02.53,3.73,4.33,6.41,4.8.13.01.26.03.41.03,1.04,0,2.19-.62,3.37-1.22,1.19-.62,2.41-1.22,3.58-1.22h.28c2.3.21,4.61,3.68,7.1,3.68s4.8-3.48,7.1-3.68h.28c1.17,0,2.39.6,3.58,1.22,1.19.6,2.35,1.22,3.37,1.22.13,0,.28,0,.41-.03,2.68-.47.85-4.34,6.22-4.87.16-.04.48,0,.65,0h.01c-1.67-.19-3.21-.92-4.39-1.99-1.32-1.19-2.58-1.85-3.89-1.85m-42.33,1.97c-.76,0-1.22.37-1.22,1.5s.45,1.5,1.22,1.5c.69,0,1.64-.31,2.73-.6,1.09-.31,2.3-.62,3.53-.62h.09c-.73-.15-1.44-.4-2.08-.73-.04-.03-.1-.06-.15-.09-1.66-.35-3.14-.97-4.12-.97m55.68.87c-.85.51-1.79.85-2.8,1,1.41.19,2.74.65,3.81.92-.32-.66-.66-1.31-1.01-1.92Z"/>
          <path class="cls-1" d="m23.14,102.4c-1.07,0-1.94.87-1.94,1.94s.87,1.94,1.94,1.94,1.94-.87,1.94-1.94-.87-1.94-1.94-1.94"/>
          <path class="cls-2" d="m23.14,102.4c-1.07,0-1.94.87-1.94,1.94s.87,1.94,1.94,1.94,1.94-.87,1.94-1.94-.87-1.94-1.94-1.94"/>
          <path class="cls-1" d="m35.35,40.28c-4.61,0-8.77,6.35-13.01,6.73-.16,0-.34.01-.51.01-2.13,0-4.36-1.11-6.53-2.21-2.17-1.11-4.28-2.23-6.17-2.23-.25,0-.5.01-.75.06-2.41.43-4.4,2.32-6.23,4.27.4,1.29.85,2.58,1.38,3.7.16.37.32.7.5,1.03.25.48.5.89.76,1.28.22.32.45.62.7.87.25.25.31.88.65,1.03.31.13.87-.21,1.17-.18h.31c.12,0,.22,0,.34-.03v.06c.69,2.48,1.58,4.85,2.71,7.04l-.84-1.83c-1.13-2.2-1.2-2.74-1.88-5.22v-.06c-.13,0-.23.03-.35.03-.1,0,.12-.72,0-.73,2.11-2.86,4.8-4.3,8.29-5.29,1.42-.41,2.93-.63,4.5-.63,2.1,0,4.09.4,5.93,1.13,1.83.72,3.52,1.76,4.96,3.05.79.7,1.57,1.32,2.35,1.85,1.82,1.22,3.61,1.88,5.44,1.88,2.26,0,4.58-1,7.08-3.18.79-.69,1.6-1.5,2.43-2.42,2.54-2.83,5.82-4.96,9.55-6.04-.12.59-.25,1.2-.41,1.82-.45,1.77-1.07,3.55-1.75,5.02-.45.98-.91,1.82-1.45,2.45-.32.37-.65.69-1.1.88-.35.15-.69.21-1.03.23-.26.88-.56,1.76-.87,2.61-.09.22-.18.44-.23.65.07-.21.16-.43.23-.65.29-.85.59-1.73.87-2.61.34-.03.67-.1,1.03-.23.45-.19.78-.53,1.1-.88.54-.63,1-1.47,1.45-2.45.67-1.48,1.29-3.26,1.75-5.02.16-.6.29-1.22.41-1.82.06-.26.1-.54.15-.82-3.02,1.28-6.34,3.62-9.43,3.62-.18,0-.34,0-.51-.01-4.24-.38-8.4-6.73-12.99-6.73"/>
          <path class="cls-2" d="m35.35,40.28c-4.61,0-8.77,6.35-13.01,6.73-.16,0-.34.01-.51.01-2.13,0-4.36-1.11-6.53-2.21-2.17-1.11-4.28-2.23-6.17-2.23-.25,0-.5.01-.75.06-2.41.43-4.4,2.32-6.23,4.27.4,1.29.85,2.58,1.38,3.7.16.37.32.7.5,1.03.25.48.5.89.76,1.28.22.32.45.62.7.87.25.25.31.88.65,1.03.31.13.87-.21,1.17-.18h.31c.12,0,.22,0,.34-.03v.06c.69,2.48,1.58,4.85,2.71,7.04l-.84-1.83c-1.13-2.2-1.2-2.74-1.88-5.22v-.06c-.13,0-.23.03-.35.03-.1,0,.12-.72,0-.73,2.11-2.86,4.8-4.3,8.29-5.29,1.42-.41,2.93-.63,4.5-.63,2.1,0,4.09.4,5.93,1.13,1.83.72,3.52,1.76,4.96,3.05.79.7,1.57,1.32,2.35,1.85,1.82,1.22,3.61,1.88,5.44,1.88,2.26,0,4.58-1,7.08-3.18.79-.69,1.6-1.5,2.43-2.42,2.54-2.83,5.82-4.96,9.55-6.04-.12.59-.25,1.2-.41,1.82-.45,1.77-1.07,3.55-1.75,5.02-.45.98-.91,1.82-1.45,2.45-.32.37-.65.69-1.1.88-.35.15-.69.21-1.03.23-.26.88-.56,1.76-.87,2.61-.09.22-.18.44-.23.65.07-.21.16-.43.23-.65.29-.85.59-1.73.87-2.61.34-.03.67-.1,1.03-.23.45-.19.78-.53,1.1-.88.54-.63,1-1.47,1.45-2.45.67-1.48,1.29-3.26,1.75-5.02.16-.6.29-1.22.41-1.82.06-.26.1-.54.15-.82-3.02,1.28-6.34,3.62-9.43,3.62-.18,0-.34,0-.51-.01-4.24-.38-8.4-6.73-12.99-6.73"/>
          <path class="cls-1" d="m58.15,44.23c-3.73,1.1-7.03,3.23-9.55,6.04-.84.92-1.64,1.73-2.43,2.42-2.52,2.19-4.83,3.18-7.08,3.18-1.85,0-3.62-.66-5.44-1.88-.78-.51-1.55-1.14-2.35-1.85-1.44-1.29-3.12-2.33-4.96-3.05-1.83-.73-3.83-1.13-5.93-1.13-1.55,0-3.08.22-4.5.63-3.49,1-6.5,3.15-8.61,6,.1,0,.26-.66.31,0,0,.12.22,0,.34-.03v.06c.69,2.48,1.58,4.85,2.71,7.04.57,1.19,1.22,2.3,1.95,3.37.16.26.35.54.54.81.69.98,1.45,1.91,2.24,2.77.19.21.4.43.6.62.13,1.23.21,2.35.21,3.36,0-1.01-.07-2.13-.21-3.36-.21-.19-.41-.41-.6-.62-.81-.87-1.55-1.79-2.24-2.77-.19-.25-.38-.53-.54-.81.76-.44,1.54-.81,2.35-1.07,2.29-2.43,4.68-5.06,7.48-6.48.87-.45,1.77-.78,2.71-.92.35-.06.72-.09,1.09-.09,4.28,0,9.31,3.92,14.26,5.63,1.39.48,2.76.79,4.11.79.25,0,.5,0,.75-.03,1.54-.15,3.09-.82,4.63-1.8-.73,1.64-1.57,3.21-2.52,4.66-.56.88-1.19,1.73-1.83,2.54.65-.81,1.26-1.64,1.83-2.54.94-1.47,1.79-3.02,2.52-4.66.5-1.04.92-2.11,1.33-3.21.07-.21.16-.43.23-.65.29-.85.59-1.73.87-2.61.34-.03.67-.1,1.03-.23.45-.19.78-.53,1.1-.88.54-.63,1-1.47,1.45-2.45.67-1.48,1.29-3.26,1.75-5.02.16-.6.29-1.22.41-1.82"/>
          <path class="cls-2" d="m58.15,44.23c-3.73,1.1-7.03,3.23-9.55,6.04-.84.92-1.64,1.73-2.43,2.42-2.52,2.19-4.83,3.18-7.08,3.18-1.85,0-3.62-.66-5.44-1.88-.78-.51-1.55-1.14-2.35-1.85-1.44-1.29-3.12-2.33-4.96-3.05-1.83-.73-3.83-1.13-5.93-1.13-1.55,0-3.08.22-4.5.63-3.49,1-6.5,3.15-8.61,6,.1,0,.26-.66.31,0,0,.12.22,0,.34-.03v.06c.69,2.48,1.58,4.85,2.71,7.04.57,1.19,1.22,2.3,1.95,3.37.16.26.35.54.54.81.69.98,1.45,1.91,2.24,2.77.19.21.4.43.6.62.13,1.23.21,2.35.21,3.36,0-1.01-.07-2.13-.21-3.36-.21-.19-.41-.41-.6-.62-.81-.87-1.55-1.79-2.24-2.77-.19-.25-.38-.53-.54-.81.76-.44,1.54-.81,2.35-1.07,2.29-2.43,4.68-5.06,7.48-6.48.87-.45,1.77-.78,2.71-.92.35-.06.72-.09,1.09-.09,4.28,0,9.31,3.92,14.26,5.63,1.39.48,2.76.79,4.11.79.25,0,.5,0,.75-.03,1.54-.15,3.09-.82,4.63-1.8-.73,1.64-1.57,3.21-2.52,4.66-.56.88-1.19,1.73-1.83,2.54.65-.81,1.26-1.64,1.83-2.54.94-1.47,1.79-3.02,2.52-4.66.5-1.04.92-2.11,1.33-3.21.07-.21.16-.43.23-.65.29-.85.59-1.73.87-2.61.34-.03.67-.1,1.03-.23.45-.19.78-.53,1.1-.88.54-.63,1-1.47,1.45-2.45.67-1.48,1.29-3.26,1.75-5.02.16-.6.29-1.22.41-1.82"/>
          <path class="cls-1" d="m26.23,56.52c-.37,0-.72.03-1.09.09-.94.16-1.86.48-2.71.92-2.8,1.42-5.19,4.05-7.48,6.48.47-.15.94-.26,1.44-.35.41-.07.84-.1,1.26-.1,3.2,0,6.75,1.86,10.4,3.74,3.65,1.86,7.39,3.74,10.97,3.74.29,0,.59,0,.89-.04,1.91-.16,3.83-1.07,5.73-2.29v-.4c.65-.81,1.26-1.64,1.83-2.54.94-1.47,1.79-3.02,2.52-4.66-1.54.97-3.09,1.66-4.65,1.8-.25.03-.5.03-.75.03-1.35,0-2.71-.31-4.11-.79-4.94-1.72-9.97-5.63-14.26-5.63"/>
          <path class="cls-2" d="m26.23,56.52c-.37,0-.72.03-1.09.09-.94.16-1.86.48-2.71.92-2.8,1.42-5.19,4.05-7.48,6.48.47-.15.94-.26,1.44-.35.41-.07.84-.1,1.26-.1,3.2,0,6.75,1.86,10.4,3.74,3.65,1.86,7.39,3.74,10.97,3.74.29,0,.59,0,.89-.04,1.91-.16,3.83-1.07,5.73-2.29v-.4c.65-.81,1.26-1.64,1.83-2.54.94-1.47,1.79-3.02,2.52-4.66-1.54.97-3.09,1.66-4.65,1.8-.25.03-.5.03-.75.03-1.35,0-2.71-.31-4.11-.79-4.94-1.72-9.97-5.63-14.26-5.63"/>
          <path class="cls-1" d="m17.65,63.58c-.43,0-.85.03-1.26.1-.5.09-.97.21-1.44.35-.82.26-1.58.63-2.35,1.07.16.26.35.54.54.81.69.98,1.45,1.91,2.24,2.77.19.21.4.43.6.62.13,1.23.21,2.35.21,3.36,0,1.91-.25,3.48-.84,4.8-.28.67-.66,1.29-1.16,1.86-.66.81-1.54,1.51-2.61,2.14,1.14.29,2.17.89,2.98,1.7,1.04,1.04,2.23,1.69,3.46,1.69,1.16,0,2.35-.54,3.56-1.82.35-.35.69-.76,1.03-1.22.45-.62.98-1.2,1.55-1.72h0c1.5-1.29,3.36-2.17,5.43-2.42.44-.07.87-.1,1.32-.1,2.57,0,4.9.94,6.7,2.49.07.04.13.09.18.15,1.67,1.51,3.27,2.36,4.91,2.36,1.85,0,3.75-1.06,5.9-3.42l.03-.03c-.47-.62-.85-1.29-1.19-1.99-1.2-2.48-1.83-5.41-1.86-8.39-1.91,1.22-3.83,2.13-5.73,2.29-.29.03-.59.04-.89.04-3.58,0-7.33-1.86-10.97-3.74-3.65-1.86-7.2-3.74-10.38-3.74m-6.25,18c-.88.51-1.92,1-3.12,1.45h0c1.2-.47,2.23-.94,3.12-1.47"/>
          <path class="cls-2" d="m17.65,63.58c-.43,0-.85.03-1.26.1-.5.09-.97.21-1.44.35-.82.26-1.58.63-2.35,1.07.16.26.35.54.54.81.69.98,1.45,1.91,2.24,2.77.19.21.4.43.6.62.13,1.23.21,2.35.21,3.36,0,1.91-.25,3.48-.84,4.8-.28.67-.66,1.29-1.16,1.86-.66.81-1.54,1.51-2.61,2.14,1.14.29,2.17.89,2.98,1.7,1.04,1.04,2.23,1.69,3.46,1.69,1.16,0,2.35-.54,3.56-1.82.35-.35.69-.76,1.03-1.22.45-.62.98-1.2,1.55-1.72h0c1.5-1.29,3.36-2.17,5.43-2.42.44-.07.87-.1,1.32-.1,2.57,0,4.9.94,6.7,2.49.07.04.13.09.18.15,1.67,1.51,3.27,2.36,4.91,2.36,1.85,0,3.75-1.06,5.9-3.42l.03-.03c-.47-.62-.85-1.29-1.19-1.99-1.2-2.48-1.83-5.41-1.86-8.39-1.91,1.22-3.83,2.13-5.73,2.29-.29.03-.59.04-.89.04-3.58,0-7.33-1.86-10.97-3.74-3.65-1.86-7.2-3.74-10.38-3.74m-6.25,18c-.88.51-1.92,1-3.12,1.45h0c1.2-.47,2.23-.94,3.12-1.47"/>
          <path class="cls-1" d="m20.19,91.49h0c-2.33.28-4.21,2.1-4.55,4.4-.06.25-.07.53-.07.79,0,2.9,2.35,5.25,5.25,5.25,1.45,0,2.76-.59,3.7-1.53.84-.82,1.76-1.33,2.73-1.33,1.16,0,2.38.69,3.61,2.39.72.97,1.61,1.79,2.68,2.35.04.03.1.06.15.09.65.34,1.35.59,2.08.73.48.12.95.16,1.47.18h.19c2.08,0,3.97-.79,5.43-2.08,1.32-1.19,2.58-1.85,3.89-1.85,1.48,0,3.01.85,4.75,2.79.95,1.06,2.11,1.92,3.43,2.54,1.32.59,2.79.92,4.33.92,3.08,0,5.85-1.33,7.76-3.46,1.73-1.92,3.27-2.79,4.75-2.79,1.29,0,2.57.66,3.89,1.85,1.19,1.07,2.7,1.8,4.37,1.99.34.06.7.09,1.06.09.43,0,.84-.03,1.23-.1,1.01-.16,1.95-.5,2.8-1-.06-.12-.12-.22-.18-.32-2.45-4.25-5.51-7.44-8.93-9.99-.38-.13-.78-.19-1.16-.21-.12-.03-.23-.03-.35-.03-1.88,0-3.83,1.09-6.03,3.55-1.01,1.13-2.2,2.07-3.53,2.79-.59.32-1.2.6-1.86.84-1.38.51-2.89.78-4.44.78-1.66,0-3.27-.31-4.72-.87-.25-.09-.51-.19-.76-.31-1.67-.76-3.15-1.85-4.36-3.2-2.2-2.46-4.15-3.55-6.01-3.55-1.66,0-3.26.85-4.93,2.35-1.83,1.64-4.24,2.64-6.88,2.64-1.72,0-3.33-.43-4.75-1.16-1.1-.57-2.08-1.35-2.92-2.27-.23-.25-.45-.53-.66-.82-.84-1.14-1.64-1.92-2.45-2.41"/>
          <path class="cls-2" d="m20.19,91.49h0c-2.33.28-4.21,2.1-4.55,4.4-.06.25-.07.53-.07.79,0,2.9,2.35,5.25,5.25,5.25,1.45,0,2.76-.59,3.7-1.53.84-.82,1.76-1.33,2.73-1.33,1.16,0,2.38.69,3.61,2.39.72.97,1.61,1.79,2.68,2.35.04.03.1.06.15.09.65.34,1.35.59,2.08.73.48.12.95.16,1.47.18h.19c2.08,0,3.97-.79,5.43-2.08,1.32-1.19,2.58-1.85,3.89-1.85,1.48,0,3.01.85,4.75,2.79.95,1.06,2.11,1.92,3.43,2.54,1.32.59,2.79.92,4.33.92,3.08,0,5.85-1.33,7.76-3.46,1.73-1.92,3.27-2.79,4.75-2.79,1.29,0,2.57.66,3.89,1.85,1.19,1.07,2.7,1.8,4.37,1.99.34.06.7.09,1.06.09.43,0,.84-.03,1.23-.1,1.01-.16,1.95-.5,2.8-1-.06-.12-.12-.22-.18-.32-2.45-4.25-5.51-7.44-8.93-9.99-.38-.13-.78-.19-1.16-.21-.12-.03-.23-.03-.35-.03-1.88,0-3.83,1.09-6.03,3.55-1.01,1.13-2.2,2.07-3.53,2.79-.59.32-1.2.6-1.86.84-1.38.51-2.89.78-4.44.78-1.66,0-3.27-.31-4.72-.87-.25-.09-.51-.19-.76-.31-1.67-.76-3.15-1.85-4.36-3.2-2.2-2.46-4.15-3.55-6.01-3.55-1.66,0-3.26.85-4.93,2.35-1.83,1.64-4.24,2.64-6.88,2.64-1.72,0-3.33-.43-4.75-1.16-1.1-.57-2.08-1.35-2.92-2.27-.23-.25-.45-.53-.66-.82-.84-1.14-1.64-1.92-2.45-2.41"/>
          <path class="cls-1" d="m33.98.85c-1.51.1-3.78,4.37-5.66,4.85-.63.16-1.26.22-1.89.22-1.5,0-2.98-.37-4.28-.73s-2.45-.73-3.3-.73c-.92,0-1.48.44-1.48,1.82s.56,1.82,1.48,1.82c.84,0,1.98-.37,3.3-.73,1.31-.37,2.79-.73,4.28-.73.63,0,1.26.06,1.89.22,1.86.47,3.49,3.26,5.6,4.81.59-.19,1.22-.28,1.85-.28,1.09,0,2.1.28,2.98.78,2.01-.85,4.21-2.41,6.26-2.41h.34c1,.09,1.99.69,3.01,1.42.78-.85,1.7-1.58,2.74-2.14.22-.12.45-.22.69-.32C47.57,4.16,39.3.57,33.99.86"/>
          <path class="cls-2" d="m33.98.85c-1.51.1-3.78,4.37-5.66,4.85-.63.16-1.26.22-1.89.22-1.5,0-2.98-.37-4.28-.73s-2.45-.73-3.3-.73c-.92,0-1.48.44-1.48,1.82s.56,1.82,1.48,1.82c.84,0,1.98-.37,3.3-.73,1.31-.37,2.79-.73,4.28-.73.63,0,1.26.06,1.89.22,1.86.47,3.49,3.26,5.6,4.81.59-.19,1.22-.28,1.85-.28,1.09,0,2.1.28,2.98.78,2.01-.85,4.21-2.41,6.26-2.41h.34c1,.09,1.99.69,3.01,1.42.78-.85,1.7-1.58,2.74-2.14.22-.12.45-.22.69-.32C47.57,4.16,39.3.57,33.99.86"/>
          <path class="cls-1" d="m51.77,8.69h0c-.23.1-.47.21-.69.32-1.04.54-1.97,1.28-2.74,2.14-.22.23-.43.5-.62.76-1.48,2.02-2.95,2.86-4.31,2.86-1.17,0-2.26-.6-3.26-1.58-.43-.43-.89-.78-1.44-1.06-.88-.5-1.89-.78-2.98-.78-.63,0-1.25.1-1.85.28-2.55.79-4.4,3.17-4.4,5.97,0,2.02.97,3.83,2.46,4.96,1.92-2.19,4.75-3.56,7.91-3.56,2.73,0,5.21,1.03,7.08,2.71,1.73,1.55,3.37,2.42,5.06,2.42,1.57,0,3.17-.73,4.93-2.36-.32-2.74-.91-5.43-1.85-7.77-.51-1.29-1.13-2.48-1.88-3.51-.45-.62-.94-1.22-1.48-1.79"/>
          <path class="cls-2" d="m51.77,8.69h0c-.23.1-.47.21-.69.32-1.04.54-1.97,1.28-2.74,2.14-.22.23-.43.5-.62.76-1.48,2.02-2.95,2.86-4.31,2.86-1.17,0-2.26-.6-3.26-1.58-.43-.43-.89-.78-1.44-1.06-.88-.5-1.89-.78-2.98-.78-.63,0-1.25.1-1.85.28-2.55.79-4.4,3.17-4.4,5.97,0,2.02.97,3.83,2.46,4.96,1.92-2.19,4.75-3.56,7.91-3.56,2.73,0,5.21,1.03,7.08,2.71,1.73,1.55,3.37,2.42,5.06,2.42,1.57,0,3.17-.73,4.93-2.36-.32-2.74-.91-5.43-1.85-7.77-.51-1.29-1.13-2.48-1.88-3.51-.45-.62-.94-1.22-1.48-1.79"/>
          <path class="cls-1" d="m39.87,18.99c-3.15,0-5.98,1.38-7.91,3.56-.23.25-.47.51-.66.81-1.61,2.23-3.23,3.14-4.72,3.14-1.28,0-2.49-.67-3.56-1.75-1.23-1.23-2.93-1.99-4.84-1.99-3.77,0-6.83,3.05-6.83,6.83s3.07,6.83,6.83,6.83c.28,0,.54,0,.82-.04h0c1.57-.19,2.95-.89,4-1.95.94-.94,1.98-1.55,3.08-1.72h0c.16,0,.32-.03.48-.03,1.5,0,3.09.91,4.71,3.14.95,1.32,2.21,2.42,3.68,3.18s3.12,1.19,4.88,1.19c2.73,0,5.21-1.03,7.08-2.71,1.73-1.54,3.36-2.42,5.06-2.42,1.44,0,3.01.98,4.59,2.32.43-2.19.56-4.41.6-5.1.06-.91.1-1.89.12-2.89v-2.27c-.04-1.73-.16-3.55-.38-5.32-1.76,1.63-3.37,2.36-4.93,2.36-1.7,0-3.34-.87-5.07-2.42-1.89-1.69-4.36-2.71-7.08-2.71"/>
          <path class="cls-2" d="m39.87,18.99c-3.15,0-5.98,1.38-7.91,3.56-.23.25-.47.51-.66.81-1.61,2.23-3.23,3.14-4.72,3.14-1.28,0-2.49-.67-3.56-1.75-1.23-1.23-2.93-1.99-4.84-1.99-3.77,0-6.83,3.05-6.83,6.83s3.07,6.83,6.83,6.83c.28,0,.54,0,.82-.04h0c1.57-.19,2.95-.89,4-1.95.94-.94,1.98-1.55,3.08-1.72h0c.16,0,.32-.03.48-.03,1.5,0,3.09.91,4.71,3.14.95,1.32,2.21,2.42,3.68,3.18s3.12,1.19,4.88,1.19c2.73,0,5.21-1.03,7.08-2.71,1.73-1.54,3.36-2.42,5.06-2.42,1.44,0,3.01.98,4.59,2.32.43-2.19.56-4.41.6-5.1.06-.91.1-1.89.12-2.89v-2.27c-.04-1.73-.16-3.55-.38-5.32-1.76,1.63-3.37,2.36-4.93,2.36-1.7,0-3.34-.87-5.07-2.42-1.89-1.69-4.36-2.71-7.08-2.71"/>
          <path class="cls-1" d="m30.97,77.57c-.45,0-.88.03-1.32.1-2.07.25-3.93,1.13-5.43,2.42h0c-.57.51-1.11,1.1-1.55,1.72-.34.47-.67.88-1.03,1.23-1.22,1.28-2.41,1.82-3.56,1.82-1.23,0-2.42-.65-3.46-1.69-.82-.81-1.85-1.41-2.98-1.7-.07.04-.13.09-.21.12-.88.51-1.92,1-3.12,1.47-.06.03-.12.04-.18.06-.88.34-1.77.67-2.67,1-.98.37-1.77,1.16-1.99,2.17h0c-.13.51-.19,1.04-.19,1.58,0,3.67,2.96,6.66,6.64,6.66.69,0,1.36-.12,1.98-.29,1.04-.34,1.95-.89,2.71-1.66,1.04-1.04,2.23-1.69,3.46-1.69.69,0,1.41.19,2.14.63.81.5,1.61,1.26,2.45,2.41.21.28.43.56.66.82.84.92,1.82,1.7,2.92,2.27,1.42.73,3.04,1.16,4.75,1.16,2.64,0,5.05-1,6.88-2.64,1.67-1.51,3.26-2.35,4.93-2.35,1.88,0,3.83,1.09,6.01,3.55,1.2,1.35,2.68,2.45,4.36,3.21.25.12.5.22.76.31,1.47.56,3.07.88,4.72.88,1.55,0,3.07-.26,4.44-.78.65-.22,1.26-.5,1.86-.84,1.33-.72,2.52-1.66,3.53-2.79,2.21-2.46,4.15-3.55,6.03-3.55.12,0,.23,0,.35.03.38,0,.07-.16.45-.04h.31c-.23-.18-.1-.1-.35-.28-.45-.34-.92-.65-1.39-.92-2.61-1.7-5.38-3.07-8.2-4.25-3.48-1.5-7.03-2.71-10.41-3.97-.54-.19-1.1-.41-1.64-.62-2.01-.78-3.64-2.16-4.88-3.92-.03-.01-.04-.04-.04-.07l-.38-.45c-2.16,2.36-3.71,3.9-5.56,3.9-1.64,0-3.24-.85-4.91-2.36-.06-.06-.12-.1-.19-.15-1.8-1.54-4.14-2.49-6.69-2.49"/>
          <path class="cls-2" d="m30.97,77.57c-.45,0-.88.03-1.32.1-2.07.25-3.93,1.13-5.43,2.42h0c-.57.51-1.11,1.1-1.55,1.72-.34.47-.67.88-1.03,1.23-1.22,1.28-2.41,1.82-3.56,1.82-1.23,0-2.42-.65-3.46-1.69-.82-.81-1.85-1.41-2.98-1.7-.07.04-.13.09-.21.12-.88.51-1.92,1-3.12,1.47-.06.03-.12.04-.18.06-.88.34-1.77.67-2.67,1-.98.37-1.77,1.16-1.99,2.17h0c-.13.51-.19,1.04-.19,1.58,0,3.67,2.96,6.66,6.64,6.66.69,0,1.36-.12,1.98-.29,1.04-.34,1.95-.89,2.71-1.66,1.04-1.04,2.23-1.69,3.46-1.69.69,0,1.41.19,2.14.63.81.5,1.61,1.26,2.45,2.41.21.28.43.56.66.82.84.92,1.82,1.7,2.92,2.27,1.42.73,3.04,1.16,4.75,1.16,2.64,0,5.05-1,6.88-2.64,1.67-1.51,3.26-2.35,4.93-2.35,1.88,0,3.83,1.09,6.01,3.55,1.2,1.35,2.68,2.45,4.36,3.21.25.12.5.22.76.31,1.47.56,3.07.88,4.72.88,1.55,0,3.07-.26,4.44-.78.65-.22,1.26-.5,1.86-.84,1.33-.72,2.52-1.66,3.53-2.79,2.21-2.46,4.15-3.55,6.03-3.55.12,0,.23,0,.35.03.38,0,.07-.16.45-.04h.31c-.23-.18-.1-.1-.35-.28-.45-.34-.92-.65-1.39-.92-2.61-1.7-5.38-3.07-8.2-4.25-3.48-1.5-7.03-2.71-10.41-3.97-.54-.19-1.1-.41-1.64-.62-2.01-.78-3.64-2.16-4.88-3.92-.03-.01-.04-.04-.04-.07l-.38-.45c-2.16,2.36-3.71,3.9-5.56,3.9-1.64,0-3.24-.85-4.91-2.36-.06-.06-.12-.1-.19-.15-1.8-1.54-4.14-2.49-6.69-2.49"/>
          <path class="cls-1" d="m21.1,14.19c-1.07,0-2.02.51-2.64,1.29h.03c-1.11,1.39-2.45,1.82-3.59,1.82-1.03,0-1.94-.38-2.43-.78h.03c-.23-.18-.56-.31-.88-.31-.75,0-1.36.62-1.36,1.36s.6,1.36,1.36,1.36c.32,0,.62-.12.85-.31l.09-.06c.5-.41,1.32-.72,2.35-.72,1.14,0,2.45.45,3.56,1.85l-.22-.32c.62.78,1.79,1.6,2.87,1.6,1.88,0,3.4-1.53,3.4-3.39s-1.53-3.4-3.4-3.4"/>
          <path class="cls-2" d="m21.1,14.19c-1.07,0-2.02.51-2.64,1.29h.03c-1.11,1.39-2.45,1.82-3.59,1.82-1.03,0-1.94-.38-2.43-.78h.03c-.23-.18-.56-.31-.88-.31-.75,0-1.36.62-1.36,1.36s.6,1.36,1.36,1.36c.32,0,.62-.12.85-.31l.09-.06c.5-.41,1.32-.72,2.35-.72,1.14,0,2.45.45,3.56,1.85l-.22-.32c.62.78,1.79,1.6,2.87,1.6,1.88,0,3.4-1.53,3.4-3.39s-1.53-3.4-3.4-3.4"/>
          <path class="cls-1" d="m4.35,33.02c1.94,0,3.51-1.57,3.51-3.51s-1.57-3.51-3.51-3.51-3.51,1.57-3.51,3.51,1.57,3.51,3.51,3.51"/>
          <path class="cls-3" d="m4.35,33.02c1.94,0,3.51-1.57,3.51-3.51s-1.57-3.51-3.51-3.51-3.51,1.57-3.51,3.51,1.57,3.51,3.51,3.51Z"/>
        </g>
      </g>
    </g>
  </g>
</svg>