<?xml version="1.0" encoding="UTF-8"?>
<svg width="530px" height="120px" viewBox="0 0 530 120" version="1.1" xmlns="http://www.w3.org/2000/svg" xmlns:xlink="http://www.w3.org/1999/xlink">
    <title>NIHR Logo Copy</title>
    <defs>
        <polygon id="path-1" points="0 0 39.76 0 39.76 44.31 0 44.31"></polygon>
        <polygon id="path-3" points="0 7.10542736e-15 28.1361812 7.10542736e-15 28.1361812 17.56 0 17.56"></polygon>
        <polygon id="path-5" points="0 0 21.8073135 0 21.8073135 12.7508106 0 12.7508106"></polygon>
        <polygon id="path-7" points="0 0 22.79025 0 22.79025 18.0000822 0 18.0000822"></polygon>
    </defs>
    <g id="Logos" stroke="none" stroke-width="1" fill="none" fill-rule="evenodd">
        <g id="NIHR-Logo-Copy">
            <rect id="Rectangle" x="0" y="0" width="530" height="120"></rect>
            <g id="NIHR_Logos_Master-01-Col-Corp-RGB" transform="translate(40.000000, 37.000000)">
                <g id="Group-3" transform="translate(0.000000, 0.390000)">
                    <mask id="mask-2" fill="white">
                        <use xlink:href="#path-1"></use>
                    </mask>
                    <g id="Clip-2"></g>
                    <polyline id="Fill-1" fill="#193E72" mask="url(#mask-2)" points="30.03 0 30.03 27.28 9.03 0 -0.06 0 -0.06 44.31 9.67 44.31 9.67 16.14 31.37 44.31 39.76 44.31 39.76 0 30.03 0"></polyline>
                </g>
                <polygon id="Fill-4" fill="#193E72" points="47.64 44.71 57.5 44.71 57.5 0.39 47.64 0.39"></polygon>
                <polyline id="Fill-5" fill="#193E72" points="93.41 0.39 93.41 18.23 75.23 18.23 75.23 0.39 65.37 0.39 65.37 44.7 75.23 44.7 75.23 27.67 93.41 27.67 93.41 44.7 103.27 44.7 103.27 0.39 93.41 0.39"></polyline>
                <path d="M138.57,26.09 C144.2,24.91 148.38,20.56 148.38,13.41 C148.38,5.41 142.82,0.65 135.87,0.41 L111.15,0.41 L111.15,44.7 L121.01,44.7 L121.01,27.7 L128.3,27.7 L138.8,44.7 L150.08,44.7 L138.57,26.09 Z M133.51,18.22 L121.02,18.22 L121.02,9.22 L133.51,9.22 C135.65,9.28 138.64,10.12 138.64,13.73 C138.64,17.34 135.64,18.17 133.51,18.24 L133.51,18.22 Z" id="Fill-6" fill="#193E72"></path>
                <polygon id="Fill-7" fill="#EA5D4E" points="164.72 44.79 168.63 44.79 168.63 0.39 164.72 0.39"></polygon>
                <path d="M198.48,0.48 L198.48,17.79 L196.83,17.79 C196.611,17.796 196.392,17.755 196.19,17.67 C195.996,17.562 195.825,17.416 195.69,17.24 L186.69,5.7 C186.69,6.23 186.76,6.7 186.76,7.16 L186.76,17.79 L183.94,17.79 L183.94,0.48 L185.98,0.48 C186.071,0.485 186.159,0.509 186.24,0.55 C186.321,0.587 186.396,0.637 186.46,0.7 L186.7,0.97 L195.78,12.57 L195.72,11.74 C195.72,11.47 195.72,11.22 195.72,10.98 L195.72,0.48 L198.48,0.48" id="Fill-8" fill="#193E72"></path>
                <path d="M208.03,12.55 C207.306,12.574 206.584,12.647 205.87,12.77 C205.389,12.851 204.919,12.989 204.47,13.18 C204.173,13.309 203.915,13.512 203.72,13.77 C203.572,13.985 203.492,14.239 203.49,14.5 C203.45,14.926 203.622,15.345 203.95,15.62 C204.305,15.855 204.725,15.97 205.15,15.95 C205.695,15.964 206.236,15.851 206.73,15.62 C207.219,15.366 207.66,15.028 208.03,14.62 L208.03,12.55 Z M201.25,7.22 C202.635,5.937 204.463,5.242 206.35,5.28 C207.01,5.271 207.665,5.389 208.28,5.63 C208.826,5.856 209.318,6.197 209.72,6.63 C210.119,7.062 210.422,7.573 210.61,8.13 C210.821,8.731 210.932,9.363 210.94,10 L210.94,17.75 L209.6,17.75 C209.38,17.762 209.161,17.721 208.96,17.63 C208.78,17.511 208.652,17.329 208.6,17.12 L208.33,16.23 C208.042,16.495 207.738,16.742 207.42,16.97 C207.133,17.179 206.825,17.356 206.5,17.5 C206.181,17.65 205.845,17.761 205.5,17.83 C205.102,17.913 204.696,17.953 204.29,17.95 C203.805,17.954 203.323,17.883 202.86,17.74 C202.44,17.611 202.052,17.397 201.72,17.11 C201.401,16.836 201.148,16.495 200.98,16.11 C200.792,15.65 200.7,15.156 200.71,14.66 C200.714,14.343 200.768,14.029 200.87,13.73 C200.979,13.405 201.153,13.106 201.38,12.85 C201.644,12.544 201.951,12.278 202.29,12.06 C202.725,11.786 203.192,11.568 203.68,11.41 C204.289,11.226 204.911,11.089 205.54,11 C206.365,10.881 207.197,10.811 208.03,10.79 L208.03,10 C208.083,9.345 207.895,8.694 207.5,8.17 C207.09,7.759 206.517,7.557 205.94,7.62 C205.537,7.607 205.135,7.661 204.75,7.78 C204.463,7.883 204.185,8.01 203.92,8.16 L203.26,8.54 C203.062,8.653 202.838,8.711 202.61,8.71 C202.419,8.713 202.233,8.654 202.08,8.54 C201.944,8.439 201.829,8.314 201.74,8.17 L201.25,7.22 L201.25,7.22 Z" id="Fill-9" fill="#193E72"></path>
                <path d="M234.33,15.7 C235.204,15.772 236.056,15.396 236.59,14.7 C237.137,13.798 237.395,12.752 237.33,11.7 C237.39,10.648 237.132,9.603 236.59,8.7 C236.056,8.004 235.204,7.627 234.33,7.7 C233.432,7.634 232.562,8.03 232.02,8.75 C231.468,9.649 231.206,10.696 231.27,11.75 C231.202,12.803 231.464,13.852 232.02,14.75 C232.585,15.429 233.45,15.785 234.33,15.7 Z M234.33,5.32 C235.177,5.306 236.019,5.455 236.81,5.76 C238.282,6.323 239.428,7.509 239.94,9 C240.238,9.844 240.384,10.734 240.37,11.63 C240.384,12.525 240.239,13.416 239.94,14.26 C239.68,15.006 239.264,15.687 238.72,16.26 C238.181,16.819 237.525,17.252 236.8,17.53 C236.009,17.835 235.167,17.984 234.32,17.97 C233.463,17.985 232.611,17.835 231.81,17.53 C231.102,17.246 230.465,16.813 229.94,16.26 C229.396,15.685 228.977,15.004 228.71,14.26 C228.403,13.417 228.254,12.526 228.27,11.63 C228.242,10.736 228.377,9.845 228.67,9 C228.944,8.249 229.377,7.567 229.94,7 C230.482,6.447 231.137,6.017 231.86,5.74 C232.65,5.446 233.488,5.304 234.33,5.32 L234.33,5.32 Z" id="Fill-10" fill="#193E72"></path>
                <path d="M245.39,7 C245.635,6.754 245.896,6.523 246.17,6.31 C246.445,6.102 246.74,5.921 247.05,5.77 C247.371,5.62 247.706,5.502 248.05,5.42 C248.428,5.337 248.813,5.296 249.2,5.3 C249.811,5.287 250.417,5.403 250.98,5.64 C251.485,5.868 251.93,6.211 252.28,6.64 C252.64,7.071 252.909,7.571 253.07,8.11 C253.256,8.722 253.347,9.36 253.34,10 L253.34,17.81 L250.34,17.81 L250.34,10 C250.381,9.375 250.2,8.755 249.83,8.25 C249.427,7.818 248.849,7.593 248.26,7.64 C247.76,7.636 247.266,7.753 246.82,7.98 C246.348,8.247 245.92,8.584 245.55,8.98 L245.55,17.86 L242.55,17.86 L242.55,5.51 L244.36,5.51 C244.71,5.483 245.03,5.71 245.12,6.05 L245.39,7" id="Fill-11" fill="#193E72"></path>
                <path d="M262.6,12.55 C261.876,12.574 261.154,12.648 260.44,12.77 C259.959,12.851 259.489,12.989 259.04,13.18 C258.743,13.309 258.485,13.512 258.29,13.77 C258.142,13.985 258.062,14.239 258.06,14.5 C258.019,14.926 258.192,15.345 258.52,15.62 C258.875,15.855 259.295,15.97 259.72,15.95 C260.265,15.964 260.806,15.851 261.3,15.62 C261.788,15.364 262.228,15.025 262.6,14.62 L262.6,12.55 Z M255.82,7.22 C257.21,5.932 259.046,5.237 260.94,5.28 C261.6,5.271 262.255,5.389 262.87,5.63 C263.416,5.856 263.907,6.197 264.31,6.63 C264.709,7.062 265.012,7.573 265.2,8.13 C265.406,8.749 265.508,9.397 265.5,10.05 L265.5,17.8 L264.14,17.8 C263.92,17.812 263.701,17.771 263.5,17.68 C263.317,17.564 263.188,17.38 263.14,17.17 L262.87,16.28 C262.575,16.539 262.264,16.779 261.94,17 C261.653,17.209 261.345,17.386 261.02,17.53 C260.701,17.68 260.365,17.791 260.02,17.86 C259.622,17.943 259.216,17.983 258.81,17.98 C258.325,17.985 257.843,17.914 257.38,17.77 C256.96,17.641 256.572,17.427 256.24,17.14 C255.921,16.866 255.668,16.524 255.5,16.14 C255.312,15.68 255.22,15.186 255.23,14.69 C255.23,14.373 255.284,14.058 255.39,13.76 C255.499,13.435 255.673,13.136 255.9,12.88 C256.164,12.574 256.471,12.308 256.81,12.09 C257.245,11.816 257.712,11.598 258.2,11.44 C258.824,11.24 259.463,11.09 260.11,10.99 C260.935,10.871 261.767,10.801 262.6,10.78 L262.6,10 C262.653,9.345 262.465,8.694 262.07,8.17 C261.677,7.756 261.119,7.539 260.55,7.58 C260.147,7.567 259.745,7.621 259.36,7.74 C259.073,7.843 258.795,7.97 258.53,8.12 L257.87,8.5 C257.672,8.613 257.448,8.671 257.22,8.67 C257.029,8.673 256.843,8.614 256.69,8.5 C256.552,8.402 256.436,8.276 256.35,8.13 L255.82,7.22 L255.82,7.22 Z" id="Fill-12" fill="#193E72"></path>
                <polygon id="Fill-13" fill="#193E72" points="268.23 17.79 271.23 17.79 271.23 0 268.23 0"></polygon>
                <polygon id="Fill-14" fill="#193E72" points="280.43 17.79 283.66 17.79 283.66 0.48 280.43 0.48"></polygon>
                <path d="M289.62,7 C289.867,6.751 290.131,6.521 290.41,6.31 C290.683,6.104 290.974,5.923 291.28,5.77 C291.601,5.62 291.936,5.502 292.28,5.42 C292.658,5.337 293.043,5.297 293.43,5.3 C294.044,5.287 294.654,5.403 295.22,5.64 C295.722,5.868 296.164,6.211 296.51,6.64 C296.873,7.071 297.145,7.571 297.31,8.11 C297.496,8.722 297.587,9.36 297.58,10 L297.58,17.81 L294.58,17.81 L294.58,10 C294.623,9.373 294.438,8.751 294.06,8.25 C293.659,7.815 293.079,7.59 292.49,7.64 C291.992,7.633 291.501,7.75 291.06,7.98 C290.588,8.247 290.16,8.584 289.79,8.98 L289.79,17.86 L286.79,17.86 L286.79,5.51 L288.6,5.51 C288.948,5.484 289.264,5.712 289.35,6.05 L289.62,7" id="Fill-15" fill="#193E72"></path>
                <path d="M307.84,7.9 C307.778,8.007 307.692,8.1 307.59,8.17 C307.486,8.226 307.368,8.253 307.25,8.25 C307.09,8.245 306.932,8.204 306.79,8.13 L306.22,7.86 C305.984,7.751 305.74,7.661 305.49,7.59 C305.164,7.503 304.827,7.463 304.49,7.47 C304.006,7.446 303.526,7.575 303.12,7.84 C302.796,8.068 302.608,8.444 302.62,8.84 C302.614,9.089 302.708,9.33 302.88,9.51 C303.075,9.708 303.306,9.867 303.56,9.98 C303.883,10.13 304.217,10.253 304.56,10.35 C304.92,10.45 305.29,10.57 305.66,10.7 C306.034,10.827 306.401,10.974 306.76,11.14 C307.124,11.291 307.462,11.501 307.76,11.76 C308.044,12.012 308.275,12.318 308.44,12.66 C308.62,13.058 308.709,13.492 308.7,13.93 C308.704,14.492 308.595,15.05 308.38,15.57 C308.173,16.068 307.851,16.51 307.44,16.86 C306.989,17.244 306.465,17.533 305.9,17.71 C305.218,17.924 304.505,18.029 303.79,18.02 C303.374,18.02 302.958,17.98 302.55,17.9 C302.156,17.828 301.768,17.725 301.39,17.59 C301.045,17.455 300.711,17.294 300.39,17.11 C300.095,16.936 299.818,16.735 299.56,16.51 L300.24,15.38 C300.319,15.255 300.425,15.149 300.55,15.07 C300.691,14.992 300.85,14.954 301.01,14.96 C301.195,14.964 301.375,15.019 301.53,15.12 L302.1,15.45 C302.342,15.586 302.597,15.7 302.86,15.79 C303.215,15.903 303.587,15.957 303.96,15.95 C304.268,15.953 304.575,15.91 304.87,15.82 C305.097,15.753 305.308,15.641 305.49,15.49 C305.643,15.362 305.766,15.201 305.85,15.02 C305.926,14.843 305.963,14.652 305.96,14.46 C305.972,14.199 305.883,13.945 305.71,13.75 C305.511,13.549 305.277,13.387 305.02,13.27 C304.696,13.125 304.362,13.005 304.02,12.91 L302.91,12.56 C302.532,12.43 302.161,12.28 301.8,12.11 C301.431,11.949 301.093,11.726 300.8,11.45 C300.502,11.169 300.267,10.828 300.11,10.45 C299.931,10.012 299.846,9.542 299.86,9.07 C299.857,8.574 299.959,8.083 300.16,7.63 C300.359,7.172 300.66,6.765 301.04,6.44 C301.464,6.079 301.953,5.8 302.48,5.62 C303.126,5.41 303.801,5.309 304.48,5.32 C305.27,5.309 306.055,5.451 306.79,5.74 C307.439,5.984 308.031,6.358 308.53,6.84 L307.84,7.9" id="Fill-16" fill="#193E72"></path>
                <path d="M330.33,18 C329.418,18.062 328.522,17.731 327.87,17.09 C327.267,16.405 326.958,15.511 327.01,14.6 L327.01,7.72 L325.75,7.72 C325.602,7.723 325.459,7.67 325.35,7.57 C325.227,7.446 325.164,7.274 325.18,7.1 L325.18,5.93 L327.18,5.6 L327.81,2.25 C327.84,2.105 327.917,1.975 328.03,1.88 C328.158,1.788 328.313,1.742 328.47,1.75 L329.94,1.75 L329.94,5.62 L333.22,5.62 L333.22,7.72 L329.94,7.72 L329.94,14.38 C329.918,14.704 330.018,15.025 330.22,15.28 C330.418,15.493 330.699,15.61 330.99,15.6 C331.146,15.604 331.301,15.584 331.45,15.54 L331.78,15.4 L332.02,15.26 C332.087,15.221 332.163,15.201 332.24,15.2 C332.315,15.195 332.389,15.216 332.45,15.26 C332.52,15.317 332.58,15.384 332.63,15.46 L333.52,16.9 C333.081,17.264 332.575,17.539 332.03,17.71 C331.482,17.894 330.908,17.991 330.33,18" id="Fill-17" fill="#193E72"></path>
                <path d="M345.7,5.51 L345.7,17.79 L343.94,17.79 C343.595,17.824 343.279,17.597 343.2,17.26 L343,16.26 C342.517,16.764 341.953,17.183 341.33,17.5 C340.099,18.087 338.68,18.137 337.41,17.64 C336.905,17.412 336.46,17.069 336.11,16.64 C335.75,16.205 335.481,15.701 335.32,15.16 C335.134,14.551 335.043,13.916 335.05,13.28 L335.05,5.51 L337.94,5.51 L337.94,13.32 C337.901,13.945 338.09,14.562 338.47,15.06 C338.866,15.496 339.442,15.725 340.03,15.68 C340.531,15.68 341.025,15.56 341.47,15.33 C341.939,15.088 342.365,14.771 342.73,14.39 L342.73,5.51 L345.7,5.51" id="Fill-18" fill="#193E72"></path>
                <path d="M352.7,18 C351.788,18.062 350.892,17.731 350.24,17.09 C349.633,16.407 349.324,15.511 349.38,14.6 L349.38,7.72 L348.12,7.72 C347.972,7.723 347.829,7.67 347.72,7.57 C347.597,7.446 347.534,7.274 347.55,7.1 L347.55,5.93 L349.55,5.6 L350.18,2.25 C350.21,2.105 350.287,1.975 350.4,1.88 C350.525,1.79 350.676,1.744 350.83,1.75 L352.37,1.75 L352.37,5.62 L355.65,5.62 L355.65,7.72 L352.34,7.72 L352.34,14.38 C352.318,14.704 352.418,15.025 352.62,15.28 C352.818,15.493 353.099,15.61 353.39,15.6 C353.546,15.604 353.701,15.584 353.85,15.54 L354.18,15.4 L354.42,15.26 C354.487,15.221 354.563,15.201 354.64,15.2 C354.715,15.197 354.788,15.218 354.85,15.26 C354.92,15.317 354.98,15.384 355.03,15.46 L355.94,16.9 C355.501,17.264 354.995,17.539 354.45,17.71 C353.886,17.899 353.295,17.997 352.7,18" id="Fill-19" fill="#193E72"></path>
                <path d="M365.310013,10.22 C365.311,9.853 365.254,9.488 365.14,9.14 C365.041,8.811 364.878,8.505 364.66,8.24 C364.433,7.983 364.153,7.779 363.84,7.64 C363.473,7.484 363.078,7.409 362.68,7.42 C361.942,7.38 361.219,7.644 360.68,8.15 C360.142,8.714 359.81,9.443 359.74,10.22 L365.310013,10.22 Z M359.67,12 C359.7,12.559 359.811,13.112 360,13.64 C360.153,14.061 360.391,14.445 360.7,14.77 C360.976,15.07 361.319,15.303 361.7,15.45 C362.121,15.597 362.564,15.672 363.01,15.67 C363.43,15.676 363.848,15.619 364.25,15.5 C364.563,15.401 364.867,15.277 365.16,15.13 L365.84,14.76 C366.013,14.656 366.209,14.598 366.41,14.59 C366.629,14.574 366.838,14.677 366.96,14.86 L367.81,15.94 C367.5,16.331 367.129,16.668 366.71,16.94 C366.311,17.192 365.885,17.4 365.44,17.56 C364.998,17.713 364.543,17.824 364.08,17.89 C363.639,17.948 363.195,17.979 362.75,17.98 C361.934,17.987 361.124,17.845 360.36,17.56 C359.638,17.286 358.986,16.856 358.45,16.3 C357.884,15.71 357.448,15.008 357.17,14.24 C356.843,13.329 356.684,12.367 356.7,11.4 C356.698902,10.58 356.845,9.768 357.13,9 C357.387,8.29 357.781,7.637 358.29,7.08 C358.813,6.522 359.447,6.079 360.15,5.78 C360.931,5.45 361.772,5.287 362.62,5.3 C363.353,5.291 364.082,5.416 364.77,5.67 C365.402,5.909 365.977,6.277 366.46,6.75 C366.945,7.25 367.319,7.846 367.56,8.5 C367.84,9.258 367.976,10.062 367.96,10.87 C367.987,11.177 367.939,11.486 367.82,11.77 C367.692,11.94 367.481,12.028 367.27,12 L359.67,12 L359.67,12 Z" id="Fill-20" fill="#193E72"></path>
                <path d="M376.81,17.79 L376.81,7.79 L375.75,7.62 C375.546,7.584 375.353,7.498 375.19,7.37 C375.046,7.249 374.968,7.067 374.98,6.88 L374.98,5.62 L376.81,5.62 L376.81,4.71 C376.801,4.062 376.91,3.419 377.13,2.81 C377.329,2.277 377.639,1.793 378.04,1.39 C378.452,0.992 378.942,0.686 379.48,0.49 C380.097,0.274 380.747,0.169 381.4,0.18 C381.922,0.181 382.441,0.258 382.94,0.41 L382.94,1.89 C382.935,1.986 382.904,2.079 382.85,2.16 C382.788,2.232 382.709,2.287 382.62,2.32 C382.52,2.356 382.416,2.379 382.31,2.39 L381.92,2.39 C381.603,2.388 381.288,2.425 380.98,2.5 C380.426,2.65 379.995,3.085 379.85,3.64 C379.742,4.01 379.691,4.394 379.7,4.78 L379.7,5.6 L382.89,5.6 L382.89,7.7 L379.79,7.7 L379.79,17.79 L376.81,17.79" id="Fill-21" fill="#193E72"></path>
                <path d="M389.63,15.7 C390.507,15.772 391.361,15.396 391.9,14.7 C392.443,13.797 392.697,12.751 392.63,11.7 C392.692,10.649 392.438,9.604 391.9,8.7 C391.361,8.004 390.507,7.627 389.63,7.7 C388.732,7.634 387.862,8.03 387.32,8.75 C386.768,9.649 386.506,10.696 386.57,11.75 C386.502,12.803 386.764,13.852 387.32,14.75 C387.885,15.429 388.75,15.785 389.63,15.7 Z M389.63,5.32 C390.477,5.305 391.32,5.454 392.11,5.76 C392.831,6.031 393.486,6.454 394.03,7 C394.578,7.571 394.998,8.253 395.26,9 C395.553,9.845 395.699,10.735 395.69,11.63 C395.699,12.525 395.554,13.414 395.26,14.26 C394.993,15.004 394.574,15.685 394.03,16.26 C393.491,16.819 392.835,17.252 392.11,17.53 C391.319,17.835 390.477,17.985 389.63,17.97 C388.773,17.984 387.921,17.834 387.12,17.53 C386.394,17.252 385.739,16.819 385.2,16.26 C384.656,15.685 384.237,15.004 383.97,14.26 C383.668,13.416 383.519,12.526 383.53,11.63 C383.51,10.736 383.649,9.845 383.94,9 C384.202,8.253 384.622,7.571 385.17,7 C385.712,6.447 386.367,6.017 387.09,5.74 C387.902,5.438 388.764,5.295 389.63,5.32 L389.63,5.32 Z" id="Fill-22" fill="#193E72"></path>
                <path d="M400.72,7.64 C401.046,6.974 401.51,6.384 402.08,5.91 C402.608,5.491 403.266,5.268 403.94,5.28 C404.421,5.258 404.896,5.388 405.3,5.65 L405.11,7.87 C405.088,7.986 405.028,8.091 404.94,8.17 C404.849,8.233 404.74,8.265 404.63,8.26 C404.452,8.253 404.275,8.233 404.1,8.2 C403.872,8.16 403.641,8.14 403.41,8.14 C403.113,8.134 402.818,8.185 402.54,8.29 C402.285,8.378 402.05,8.518 401.85,8.7 C401.642,8.891 401.46,9.11 401.31,9.35 C401.141,9.632 400.994,9.926 400.87,10.23 L400.87,17.79 L397.94,17.79 L397.94,5.51 L399.67,5.51 C399.895,5.489 400.121,5.546 400.31,5.67 C400.45,5.832 400.534,6.036 400.55,6.25 L400.72,7.64" id="Fill-23" fill="#193E72"></path>
                <g id="Group-27" transform="translate(183.940000, 27.480000)">
                    <mask id="mask-4" fill="white">
                        <use xlink:href="#path-3"></use>
                    </mask>
                    <g id="Clip-25"></g>
                    <polyline id="Fill-24" fill="#193E72" mask="url(#mask-4)" points="14.54 7.10542736e-15 14.54 17.31 11.31 17.31 11.31 9.75 3.18 9.75 3.18 17.31 0 17.31 0 7.10542736e-15 3.23 7.10542736e-15 3.23 7.45 11.36 7.45 11.36 7.10542736e-15 14.54 7.10542736e-15"></polyline>
                    <path d="M25.43,9.74 C25.434,9.374 25.38,9.009 25.27,8.66 C25.167,8.33 25.001,8.025 24.78,7.76 C24.555,7.501 24.275,7.296 23.96,7.16 C22.89,6.736 21.673,6.932 20.79,7.67 C20.256,8.236 19.925,8.965 19.85,9.74 L25.43,9.74 Z M19.79,11.52 C19.825,12.079 19.936,12.63 20.12,13.16 C20.273,13.581 20.511,13.966 20.82,14.29 C21.1,14.586 21.441,14.818 21.82,14.97 C22.241,15.115 22.684,15.19 23.13,15.19 C23.55,15.197 23.968,15.14 24.37,15.02 C24.683,14.921 24.987,14.797 25.28,14.65 L25.97,14.28 C26.139,14.175 26.332,14.116 26.53,14.11 C26.751,14.095 26.964,14.197 27.09,14.38 L28,15.52 C27.684,15.909 27.31,16.246 26.89,16.52 C26.492,16.774 26.066,16.982 25.62,17.14 C25.182,17.293 24.73,17.404 24.27,17.47 C23.826,17.528 23.378,17.559 22.93,17.56 C22.118,17.567 21.311,17.425 20.55,17.14 C19.824,16.869 19.168,16.438 18.63,15.88 C18.064,15.29 17.628,14.588 17.35,13.82 C17.023,12.909 16.864,11.947 16.88,10.98 C16.876,10.172 17.015,9.369 17.29,8.61 C17.546,7.897 17.944,7.244 18.46,6.69 C18.979,6.132 19.61,5.689 20.31,5.39 C21.094,5.059 21.939,4.896 22.79,4.91 C23.52,4.9 24.245,5.026 24.93,5.28 C25.564,5.514 26.141,5.883 26.62,6.36 C27.105,6.862 27.483,7.457 27.73,8.11 C28.005,8.869 28.141,9.672 28.13,10.48 C28.155,10.787 28.104,11.097 27.98,11.38 C27.853,11.552 27.642,11.64 27.43,11.61 L19.79,11.52 L19.79,11.52 Z" id="Fill-26" fill="#193E72" mask="url(#mask-4)"></path>
                </g>
                <path d="M220.72,39.55 C219.996,39.574 219.274,39.647 218.56,39.77 C218.079,39.851 217.609,39.989 217.16,40.18 C216.862,40.312 216.602,40.514 216.4,40.77 C216.032,41.365 216.133,42.137 216.64,42.62 C216.995,42.855 217.415,42.97 217.84,42.95 C218.385,42.963 218.926,42.85 219.42,42.62 C219.908,42.364 220.348,42.025 220.72,41.62 L220.72,39.55 Z M213.94,34.22 C215.325,32.937 217.153,32.242 219.04,32.28 C219.7,32.271 220.355,32.39 220.97,32.63 C221.512,32.858 221.999,33.199 222.4,33.63 C222.798,34.064 223.105,34.574 223.3,35.13 C223.506,35.748 223.608,36.398 223.6,37.05 L223.6,44.8 L222.26,44.8 C222.037,44.81 221.815,44.769 221.61,44.68 C221.433,44.558 221.305,44.377 221.25,44.17 L220.99,43.28 C220.702,43.545 220.398,43.792 220.08,44.02 C219.793,44.229 219.485,44.406 219.16,44.55 C218.842,44.7 218.506,44.811 218.16,44.88 C217.759,44.965 217.35,45.005 216.94,45 C216.452,45.004 215.966,44.934 215.5,44.79 C215.084,44.659 214.7,44.444 214.37,44.16 C214.051,43.884 213.795,43.543 213.62,43.16 C213.44,42.698 213.352,42.205 213.36,41.71 C213.36,41.393 213.414,41.078 213.52,40.78 C213.629,40.455 213.803,40.156 214.03,39.9 C214.294,39.594 214.601,39.328 214.94,39.11 C215.372,38.838 215.836,38.62 216.32,38.46 C216.945,38.262 217.583,38.112 218.23,38.01 C219.059,37.891 219.893,37.821 220.73,37.8 L220.73,37 C220.783,36.345 220.595,35.694 220.2,35.17 C219.807,34.756 219.249,34.539 218.68,34.58 C218.277,34.567 217.875,34.621 217.49,34.74 C217.2,34.843 216.919,34.97 216.65,35.12 L216,35.5 C215.802,35.613 215.578,35.671 215.35,35.67 C215.159,35.673 214.973,35.613 214.82,35.5 C214.681,35.399 214.563,35.274 214.47,35.13 L213.94,34.22 L213.94,34.22 Z" id="Fill-28" fill="#193E72"></path>
                <g id="Group-32" transform="translate(226.340000, 27.000000)" fill="#193E72">
                    <polygon id="Fill-29" points="0 17.79 2.95 17.79 2.95 0 0 0"></polygon>
                    <path d="M9.96,18 C9.048,18.062 8.152,17.731 7.5,17.09 C6.897,16.405 6.588,15.511 6.64,14.6 L6.64,7.72 L5.39,7.72 C5.239,7.724 5.092,7.67 4.98,7.57 C4.861,7.443 4.799,7.273 4.81,7.1 L4.81,5.93 L6.81,5.6 L7.43,2.25 C7.463,2.104 7.544,1.974 7.66,1.88 C7.783,1.787 7.936,1.741 8.09,1.75 L9.6,1.75 L9.6,5.62 L12.88,5.62 L12.88,7.72 L9.6,7.72 L9.6,14.38 C9.578,14.704 9.678,15.025 9.88,15.28 C10.078,15.493 10.359,15.61 10.65,15.6 C10.809,15.603 10.967,15.583 11.12,15.54 C11.229,15.499 11.336,15.452 11.44,15.4 L11.68,15.26 C11.748,15.223 11.823,15.202 11.9,15.2 C11.978,15.197 12.055,15.218 12.12,15.26 C12.184,15.322 12.245,15.389 12.3,15.46 L13.18,16.9 C12.744,17.264 12.241,17.539 11.7,17.71 C11.139,17.897 10.552,17.995 9.96,18" id="Fill-31"></path>
                </g>
                <path d="M244.02,33.83 C244.489,33.39 245.022,33.022 245.6,32.74 C246.227,32.452 246.91,32.308 247.6,32.32 C248.211,32.307 248.817,32.423 249.38,32.66 C249.886,32.885 250.332,33.228 250.68,33.66 C251.04,34.091 251.309,34.591 251.47,35.13 C251.656,35.742 251.747,36.38 251.74,37.02 L251.74,44.83 L248.74,44.83 L248.74,37 C248.781,36.375 248.6,35.755 248.23,35.25 C247.828,34.817 247.249,34.592 246.66,34.64 C246.16,34.636 245.666,34.753 245.22,34.98 C244.753,35.234 244.326,35.554 243.95,35.93 L243.95,44.81 L240.95,44.81 L240.95,27 L243.95,27 L244.02,33.83" id="Fill-33" fill="#193E72"></path>
                <path d="M266.79,39.55 C266.066,39.574 265.344,39.647 264.63,39.77 C264.149,39.851 263.679,39.989 263.23,40.18 C262.933,40.309 262.675,40.512 262.48,40.77 C262.332,40.985 262.252,41.239 262.25,41.5 C262.21,41.926 262.382,42.345 262.71,42.62 C263.067,42.878 263.499,43.012 263.94,43 C264.485,43.014 265.026,42.901 265.52,42.67 C266.009,42.416 266.45,42.078 266.82,41.67 L266.79,39.55 Z M260.01,34.22 C261.395,32.937 263.223,32.242 265.11,32.28 C265.77,32.271 266.425,32.39 267.04,32.63 C267.585,32.858 268.075,33.199 268.48,33.63 C268.875,34.064 269.178,34.575 269.37,35.13 C269.576,35.748 269.678,36.398 269.67,37.05 L269.67,44.8 L268.33,44.8 C268.11,44.812 267.891,44.771 267.69,44.68 C267.507,44.564 267.378,44.38 267.33,44.17 L267.06,43.28 C266.772,43.545 266.468,43.792 266.15,44.02 C265.863,44.229 265.555,44.406 265.23,44.55 C264.911,44.7 264.575,44.811 264.23,44.88 C263.832,44.963 263.426,45.003 263.02,45 C262.535,45.004 262.053,44.933 261.59,44.79 C261.17,44.661 260.782,44.447 260.45,44.16 C260.131,43.886 259.878,43.545 259.71,43.16 C259.522,42.7 259.43,42.206 259.44,41.71 C259.444,41.393 259.498,41.079 259.6,40.78 C259.709,40.455 259.883,40.156 260.11,39.9 C260.374,39.594 260.681,39.328 261.02,39.11 C261.455,38.836 261.922,38.618 262.41,38.46 C263.034,38.26 263.673,38.11 264.32,38.01 C265.145,37.891 265.977,37.821 266.81,37.8 L266.81,37 C266.863,36.345 266.675,35.694 266.28,35.17 C265.887,34.756 265.329,34.539 264.76,34.58 C264.357,34.567 263.955,34.621 263.57,34.74 C263.283,34.843 263.005,34.97 262.74,35.12 L262.08,35.5 C261.882,35.613 261.658,35.671 261.43,35.67 C261.239,35.673 261.053,35.613 260.9,35.5 C260.762,35.402 260.646,35.276 260.56,35.13 L260.01,34.22 L260.01,34.22 Z" id="Fill-34" fill="#193E72"></path>
                <path d="M275.17,34 C275.415,33.754 275.676,33.523 275.95,33.31 C276.225,33.102 276.52,32.921 276.83,32.77 C277.151,32.62 277.486,32.503 277.83,32.42 C278.208,32.337 278.593,32.296 278.98,32.3 C279.591,32.287 280.197,32.403 280.76,32.64 C281.265,32.868 281.71,33.21 282.06,33.64 C282.42,34.071 282.689,34.571 282.85,35.11 C283.036,35.722 283.127,36.36 283.12,37 L283.12,44.81 L280.12,44.81 L280.12,37 C280.161,36.375 279.98,35.755 279.61,35.25 C279.207,34.818 278.629,34.593 278.04,34.64 C277.54,34.636 277.046,34.753 276.6,34.98 C276.132,35.231 275.704,35.551 275.33,35.93 L275.33,44.81 L272.33,44.81 L272.33,32.51 L274.14,32.51 C274.49,32.483 274.81,32.71 274.9,33.05 L275.17,34" id="Fill-35" fill="#193E72"></path>
                <path d="M293.58,35.65 C293.287,35.277 292.91,34.979 292.48,34.78 C292.074,34.614 291.639,34.529 291.2,34.5299655 C290.784,34.528 290.372,34.613 289.99,34.78 C289.63,34.96 289.315,35.22 289.07,35.54 C288.793,35.931 288.596,36.372 288.49,36.84 C288.34,37.445 288.27,38.067 288.28,38.69 C288.269,39.301 288.329,39.912 288.46,40.51 C288.547,40.946 288.713,41.363 288.95,41.74 C289.149,42.032 289.421,42.267 289.74,42.42 C290.071,42.563 290.429,42.634 290.79,42.63 C291.336,42.644 291.875,42.509 292.35,42.24 C292.823,41.954 293.239,41.584 293.58,41.15 L293.58,35.65 Z M296.53,27 L296.53,44.79 L294.73,44.79 C294.383,44.825 294.063,44.599 293.98,44.26 L293.73,43.07 C293.252,43.629 292.676,44.097 292.03,44.45 C291.335,44.809 290.562,44.987 289.78,44.97 C289.143,44.976 288.514,44.836 287.94,44.56 C287.37,44.269 286.874,43.851 286.49,43.34 C286.057,42.737 285.742,42.059 285.56,41.34 C285.328,40.466 285.217,39.564 285.23,38.66 C285.221,37.799 285.346,36.942 285.6,36.12 C285.831,35.393 286.193,34.715 286.67,34.12 C287.118,33.556 287.685,33.099 288.33,32.78 C289.007,32.444 289.755,32.276 290.51,32.29 C291.112,32.276 291.711,32.385 292.27,32.61 C292.754,32.826 293.197,33.124 293.58,33.49 L293.58,27 L296.53,27 L296.53,27 Z" id="Fill-36" fill="#193E72"></path>
                <path d="M317.54,40.71 C317.716,40.711 317.883,40.787 318,40.92 L319.27,42.29 C318.58,43.155 317.692,43.841 316.68,44.29 C315.513,44.78 314.256,45.018 312.99,44.99 C311.8,45.01 310.619,44.785 309.52,44.33 C308.542,43.905 307.664,43.282 306.94,42.5 C306.197,41.687 305.629,40.731 305.27,39.69 C304.872,38.549 304.676,37.348 304.69,36.14 C304.676,34.919 304.886,33.705 305.31,32.56 C305.701,31.52 306.3,30.571 307.07,29.77 C307.832,28.977 308.752,28.353 309.77,27.94 C310.871,27.492 312.051,27.271 313.24,27.29 C314.39,27.271 315.532,27.481 316.6,27.91 C317.527,28.294 318.374,28.847 319.1,29.54 L317.94,31 C317.867,31.093 317.783,31.177 317.69,31.25 C317.567,31.325 317.424,31.36 317.28,31.35 C317.15,31.349 317.023,31.314 316.91,31.25 C316.764,31.177 316.624,31.093 316.49,31 L315.96,30.67 C315.74,30.54 315.509,30.43 315.27,30.34 C314.97,30.232 314.663,30.149 314.35,30.09 C313.954,30.017 313.552,29.984 313.15,29.99 C312.42,29.983 311.695,30.122 311.02,30.4 C310.387,30.676 309.821,31.085 309.36,31.6 C308.876,32.16 308.511,32.813 308.29,33.52 C308.017,34.352 307.885,35.224 307.9,36.1 C307.885,36.984 308.028,37.865 308.32,38.7 C308.561,39.405 308.942,40.055 309.44,40.61 C309.898,41.124 310.465,41.531 311.1,41.8 C311.75,42.082 312.451,42.226 313.16,42.22 C313.558,42.221 313.956,42.194 314.35,42.14 C314.998,42.07 315.623,41.858 316.18,41.52 C316.465,41.341 316.733,41.137 316.98,40.91 C317.054,40.841 317.138,40.783 317.23,40.74 C317.328,40.7 317.436,40.69 317.54,40.71" id="Fill-37" fill="#193E72"></path>
                <path d="M327.46,39.55 C326.739,39.574 326.021,39.648 325.31,39.77 C324.829,39.851 324.359,39.989 323.91,40.18 C323.611,40.309 323.349,40.512 323.15,40.77 C322.782,41.365 322.883,42.137 323.39,42.62 C323.745,42.855 324.165,42.97 324.59,42.95 C325.132,42.964 325.67,42.851 326.16,42.62 C326.651,42.369 327.092,42.03 327.46,41.62 L327.46,39.55 Z M320.69,34.22 C322.075,32.937 323.903,32.242 325.79,32.28 C326.45,32.271 327.105,32.39 327.72,32.63 C328.819,33.082 329.666,33.991 330.04,35.12 C330.255,35.737 330.359,36.386 330.35,37.04 L330.35,44.79 L329.01,44.79 C328.787,44.801 328.564,44.76 328.36,44.67 C328.183,44.548 328.055,44.367 328,44.16 L327.74,43.27 C327.45,43.532 327.146,43.779 326.83,44.01 C326.542,44.217 326.234,44.394 325.91,44.54 C325.592,44.69 325.256,44.801 324.91,44.87 C324.516,44.953 324.113,44.993 323.71,44.99 C323.222,44.994 322.736,44.924 322.27,44.78 C321.852,44.654 321.466,44.439 321.14,44.15 C320.821,43.874 320.565,43.533 320.39,43.15 C320.21,42.688 320.122,42.195 320.13,41.7 C320.131,41.384 320.181,41.07 320.28,40.77 C320.397,40.449 320.57,40.151 320.79,39.89 C321.058,39.584 321.368,39.318 321.71,39.1 C322.142,38.828 322.605,38.61 323.09,38.45 C323.695,38.255 324.313,38.105 324.94,38 C325.765,37.882 326.597,37.811 327.43,37.79 L327.43,37 C327.486,36.347 327.301,35.696 326.91,35.17 C326.517,34.756 325.959,34.539 325.39,34.58 C324.984,34.568 324.579,34.622 324.19,34.74 C323.904,34.845 323.626,34.972 323.36,35.12 L322.71,35.5 C322.512,35.612 322.288,35.67 322.06,35.67 C321.869,35.675 321.682,35.615 321.53,35.5 C321.391,35.399 321.273,35.274 321.18,35.13 L320.69,34.22 L320.69,34.22 Z" id="Fill-38" fill="#193E72"></path>
                <path d="M335.87,34.64 C336.2,33.973 336.667,33.383 337.24,32.91 C337.767,32.488 338.425,32.265 339.1,32.28 C339.584,32.26 340.062,32.389 340.47,32.65 L340.28,34.87 C340.254,34.987 340.191,35.092 340.1,35.17 C340.014,35.235 339.908,35.267 339.8,35.26 C339.622,35.254 339.445,35.234 339.27,35.2 C339.042,35.161 338.811,35.141 338.58,35.14 C338.28,35.135 337.981,35.186 337.7,35.29 C337.447,35.383 337.213,35.522 337.01,35.7 C336.802,35.891 336.62,36.11 336.47,36.35 C336.305,36.632 336.161,36.926 336.04,37.23 L336.04,44.79 L333.04,44.79 L333.04,32.51 L334.78,32.51 C335.002,32.486 335.226,32.543 335.41,32.67 C335.55,32.832 335.634,33.036 335.65,33.25 L335.87,34.64" id="Fill-39" fill="#193E72"></path>
                <path d="M349.58,37.22 C349.585,36.854 349.53,36.489 349.42,36.14 C349.317,35.813 349.154,35.508 348.94,35.24 C348.713,34.983 348.433,34.779 348.12,34.64 C347.753,34.484 347.358,34.409 346.96,34.42 C346.222,34.383 345.501,34.647 344.96,35.15 C344.429,35.719 344.099,36.446 344.02,37.22 L349.58,37.22 Z M343.94,39 C343.973,39.56 344.088,40.112 344.28,40.64 C344.43,41.06 344.664,41.445 344.97,41.77 C345.249,42.067 345.591,42.3 345.97,42.45 C346.391,42.598 346.834,42.672 347.28,42.67 C347.7,42.676 348.118,42.619 348.52,42.5 C348.832,42.399 349.136,42.275 349.43,42.13 L350.11,41.76 C350.283,41.656 350.479,41.598 350.68,41.59 C350.898,41.574 351.108,41.677 351.23,41.86 L352.08,42.94 C351.768,43.328 351.396,43.666 350.98,43.94 C350.578,44.194 350.149,44.402 349.7,44.56 C349.262,44.714 348.81,44.825 348.35,44.89 C347.906,44.949 347.458,44.979 347.01,44.98 C346.198,44.986 345.391,44.844 344.63,44.56 C343.908,44.286 343.256,43.856 342.72,43.3 C342.151,42.71 341.712,42.009 341.43,41.24 C341.106,40.329 340.95,39.366 340.97,38.4 C340.963,37.592 341.098,36.79 341.37,36.03 C341.634,35.321 342.031,34.669 342.54,34.11 C343.063,33.552 343.696,33.109 344.4,32.81 C345.181,32.479 346.022,32.316 346.87,32.33 C347.6,32.32 348.326,32.445 349.01,32.7 C349.644,32.934 350.221,33.303 350.7,33.78 C351.185,34.282 351.563,34.877 351.81,35.53 C352.09,36.288 352.226,37.092 352.21,37.9 C352.233,38.207 352.185,38.515 352.07,38.8 C351.942,38.97 351.731,39.058 351.52,39.03 L343.94,39 L343.94,39 Z" id="Fill-40" fill="#193E72"></path>
                <path d="M365.83,35.72 C366.369,35.729 366.906,35.652 367.42,35.49 C367.831,35.362 368.209,35.147 368.53,34.86 C368.825,34.584 369.048,34.241 369.18,33.86 C369.331,33.475 369.406,33.064 369.4,32.65 C369.439,31.884 369.117,31.143 368.53,30.65 C367.753,30.12 366.818,29.869 365.88,29.94 L363.82,29.94 L363.82,35.69 L365.83,35.72 Z M374.12,44.79 L371.21,44.79 C370.72,44.824 370.254,44.576 370.01,44.15 L366.37,38.6 C366.254,38.421 366.101,38.271 365.92,38.16 C365.694,38.058 365.447,38.014 365.2,38.03 L363.82,38.03 L363.82,44.79 L360.6,44.79 L360.6,27.48 L365.88,27.48 C366.892,27.462 367.901,27.584 368.88,27.84 C369.63,28.032 370.333,28.372 370.95,28.84 C371.473,29.256 371.885,29.796 372.15,30.41 C372.612,31.583 372.654,32.879 372.27,34.08 C371.936,35.122 371.25,36.016 370.33,36.61 C369.832,36.942 369.286,37.196 368.71,37.36 C368.916,37.48 369.108,37.624 369.28,37.79 C369.466,37.96 369.627,38.155 369.76,38.37 L374.12,44.79 L374.12,44.79 Z" id="Fill-41" fill="#193E72"></path>
                <path d="M382.58,37.22 C382.585,36.854 382.53,36.489 382.42,36.14 C382.321,35.811 382.158,35.505 381.94,35.24 C381.713,34.983 381.433,34.779 381.12,34.64 C380.753,34.484 380.358,34.409 379.96,34.42 C379.222,34.385 378.502,34.648 377.96,35.15 C377.429,35.719 377.099,36.446 377.02,37.22 L382.58,37.22 Z M376.94,39 C376.973,39.56 377.088,40.112 377.28,40.64 C377.433,41.058 377.668,41.442 377.97,41.77 C378.249,42.067 378.591,42.3 378.97,42.45 C379.391,42.598 379.834,42.672 380.28,42.67 C380.7,42.676 381.118,42.619 381.52,42.5 C381.833,42.401 382.137,42.277 382.43,42.13 L383.11,41.76 C383.283,41.656 383.479,41.598 383.68,41.59 C383.898,41.574 384.108,41.677 384.23,41.86 L385.08,42.94 C384.768,43.328 384.396,43.666 383.98,43.94 C383.578,44.194 383.149,44.402 382.7,44.56 C382.262,44.714 381.81,44.825 381.35,44.89 C380.909,44.948 380.465,44.979 380.02,44.98 C379.204,44.987 378.394,44.845 377.63,44.56 C376.908,44.286 376.256,43.856 375.72,43.3 C375.151,42.712 374.714,42.01 374.44,41.24 C374.108,40.331 373.948,39.367 373.97,38.4 C373.961,37.591 374.1,36.788 374.38,36.03 C374.637,35.32 375.031,34.667 375.54,34.11 C376.063,33.552 376.696,33.109 377.4,32.81 C378.181,32.479 379.022,32.316 379.87,32.33 C380.603,32.321 381.332,32.446 382.02,32.7 C382.65,32.937 383.223,33.305 383.7,33.78 C384.188,34.279 384.566,34.875 384.81,35.53 C385.09,36.288 385.226,37.092 385.21,37.9 C385.237,38.207 385.189,38.516 385.07,38.8 C384.942,38.97 384.731,39.058 384.52,39.03 L376.94,39 L376.94,39 Z" id="Fill-42" fill="#193E72"></path>
                <g id="Group-46" transform="translate(386.650000, 32.289189)">
                    <mask id="mask-6" fill="white">
                        <use xlink:href="#path-5"></use>
                    </mask>
                    <g id="Clip-44"></g>
                    <path d="M8.29,2.61081062 C8.228,2.71781062 8.142,2.81081062 8.04,2.88081062 C7.936,2.93581062 7.818,2.96381062 7.7,2.96081062 C7.54,2.95581062 7.382,2.91481062 7.24,2.84081062 L6.67,2.57081062 C6.43,2.46181062 6.183,2.37181062 5.93,2.30081062 C5.604,2.21181062 5.267,2.17181062 4.93,2.18081062 C4.446,2.15481062 3.966,2.28481062 3.56,2.55081062 C3.236,2.77881062 3.048,3.15481062 3.06,3.55081062 C3.055,3.79981062 3.148,4.04081062 3.32,4.22081062 C3.515,4.41881062 3.746,4.57781062 4,4.69081062 C4.322,4.84281062 4.657,4.96581062 5,5.06081062 C5.36,5.16081062 5.73,5.28081062 6.1,5.41081062 C6.474,5.53781062 6.841,5.68481062 7.2,5.85081062 C7.563,6.00481062 7.9,6.21381062 8.2,6.47081062 C8.484,6.72281062 8.715,7.02881062 8.88,7.37081062 C9.06,7.76881062 9.149,8.20281062 9.14,8.64081062 C9.144,9.20281062 9.035,9.76081062 8.82,10.2808106 C8.613,10.7788106 8.291,11.2208106 7.88,11.5708106 C7.429,11.9548106 6.905,12.2438106 6.34,12.4208106 C5.658,12.6348106 4.945,12.7398106 4.23,12.7308106 C3.814,12.7308106 3.398,12.6908106 2.99,12.6108106 C2.596,12.5388106 2.208,12.4358106 1.83,12.3008106 C1.485,12.1668106 1.15,12.0068106 0.83,11.8208106 C0.535,11.6468106 0.258,11.4458106 0,11.2208106 L0.68,10.0908106 C0.759,9.96581062 0.865,9.85981062 0.99,9.78081062 C1.131,9.70281062 1.29,9.66481062 1.45,9.67081062 C1.635,9.67481062 1.815,9.72981062 1.97,9.83081062 L2.53,10.1608106 C2.776,10.2968106 3.034,10.4108106 3.3,10.5008106 C3.655,10.6138106 4.027,10.6678106 4.4,10.6608106 C4.708,10.6638106 5.015,10.6208106 5.31,10.5308106 C5.537,10.4638106 5.748,10.3518106 5.93,10.2008106 C6.083,10.0728106 6.206,9.91181062 6.29,9.73081062 C6.361,9.55181062 6.398,9.36281062 6.4,9.17081062 C6.412,8.90981062 6.323,8.65581062 6.15,8.46081062 C5.949,8.26181062 5.716,8.09981062 5.46,7.98081062 C5.136,7.83581062 4.802,7.71581062 4.46,7.62081062 L3.29,7.24081062 C2.912,7.11081062 2.541,6.96081062 2.18,6.79081062 C1.811,6.62981062 1.473,6.40681062 1.18,6.13081062 C0.879,5.85281062 0.643,5.51081062 0.49,5.13081062 C0.311,4.69281062 0.226,4.22281062 0.24,3.75081062 C0.239,3.25581062 0.337,2.76581062 0.53,2.31081062 C0.737,1.85381062 1.04,1.44781062 1.42,1.12081062 C1.844,0.759810623 2.333,0.481810623 2.86,0.300810623 C3.506,0.0908106235 4.181,-0.0101893765 4.86,0.000810623475 C5.65,-0.0101893765 6.435,0.131810623 7.17,0.420810623 C7.818,0.666810623 8.409,1.04081062 8.91,1.52081062 L8.29,2.61081062" id="Fill-43" fill="#193E72" mask="url(#mask-6)"></path>
                    <path d="M19.16,4.93081062 C19.165,4.56481062 19.11,4.19981062 19,3.85081062 C18.901,3.52181062 18.738,3.21581062 18.52,2.95081062 C18.293,2.69381062 18.013,2.48981062 17.7,2.35081062 C17.333,2.19481062 16.938,2.11981062 16.54,2.13081062 C15.802,2.09581062 15.082,2.35881062 14.54,2.86081062 C14.009,3.42981062 13.679,4.15681062 13.6,4.93081062 L19.16,4.93081062 Z M13.52,6.71081062 C13.553,7.27081062 13.668,7.82281062 13.86,8.35081062 C14.013,8.76881062 14.248,9.15281062 14.55,9.48081062 C14.829,9.77781062 15.171,10.0108106 15.55,10.1608106 C15.971,10.3088106 16.414,10.3828106 16.86,10.3808106 C17.28,10.3868106 17.698,10.3298106 18.1,10.2108106 C18.413,10.1118106 18.717,9.98781062 19.01,9.84081062 L19.69,9.47081062 C19.863,9.36681062 20.059,9.30881062 20.26,9.30081062 C20.479,9.28481062 20.688,9.38781062 20.81,9.57081062 L21.69,10.7108106 C21.378,11.0988106 21.006,11.4368106 20.59,11.7108106 C20.188,11.9648106 19.759,12.1728106 19.31,12.3308106 C18.872,12.4848106 18.42,12.5958106 17.96,12.6608106 C17.519,12.7188106 17.075,12.7498106 16.63,12.7508106 C15.814,12.7578106 15.004,12.6158106 14.24,12.3308106 C13.497,12.0418106 12.83,11.5868106 12.29,11.0008106 C11.721,10.4128106 11.285,9.71081062 11.01,8.94081062 C10.678,8.03181062 10.518,7.06781062 10.54,6.10081062 C10.542,5.28281062 10.694,4.47281062 10.99,3.71081062 C11.247,3.00081062 11.641,2.34781062 12.15,1.79081062 C12.673,1.23281062 13.307,0.789810623 14.01,0.490810623 C14.791,0.159810623 15.632,-0.00318937652 16.48,0.0108106235 C17.213,0.00181062348 17.942,0.126810623 18.63,0.380810623 C19.255,0.625810623 19.82,1.00081062 20.29,1.48081062 C20.778,1.97981062 21.156,2.57581062 21.4,3.23081062 C21.68,3.98881062 21.816,4.79281062 21.8,5.60081062 C21.827,5.90781062 21.779,6.21681062 21.66,6.50081062 C21.532,6.67081062 21.321,6.75881062 21.11,6.73081062 L13.52,6.71081062 L13.52,6.71081062 Z" id="Fill-45" fill="#193E72" mask="url(#mask-6)"></path>
                </g>
                <path d="M417.13,39.55 C416.409,39.574 415.691,39.648 414.98,39.77 C414.496,39.851 414.023,39.989 413.57,40.18 C413.273,40.309 413.015,40.512 412.82,40.77 C412.442,41.361 412.538,42.139 413.05,42.62 C413.408,42.857 413.832,42.972 414.26,42.95 C414.802,42.963 415.339,42.85 415.83,42.62 C416.319,42.366 416.76,42.028 417.13,41.62 L417.13,39.55 Z M410.35,34.22 C411.737,32.941 413.564,32.246 415.45,32.28 C416.11,32.27 416.766,32.389 417.38,32.63 C417.926,32.856 418.418,33.197 418.82,33.63 C419.219,34.062 419.522,34.573 419.71,35.13 C419.92,35.748 420.024,36.397 420.02,37.05 L420.02,44.8 L418.68,44.8 C418.457,44.811 418.234,44.77 418.03,44.68 C417.853,44.558 417.725,44.377 417.67,44.17 L417.41,43.28 C417.09,43.56 416.79,43.81 416.5,44.02 C416.208,44.227 415.897,44.404 415.57,44.55 C415.251,44.7 414.915,44.811 414.57,44.88 C414.176,44.963 413.773,45.003 413.37,45 C412.882,45.004 412.396,44.934 411.93,44.79 C411.51,44.661 411.122,44.447 410.79,44.16 C410.471,43.886 410.218,43.545 410.05,43.16 C409.865,42.699 409.777,42.206 409.79,41.71 C409.791,41.394 409.841,41.08 409.94,40.78 C410.057,40.459 410.23,40.161 410.45,39.9 C410.718,39.594 411.028,39.328 411.37,39.11 C411.8,38.834 412.264,38.616 412.75,38.46 C413.367,38.259 413.999,38.105 414.64,38 C415.465,37.882 416.297,37.811 417.13,37.79 L417.13,37 C417.183,36.345 416.995,35.694 416.6,35.17 C416.208,34.755 415.65,34.538 415.08,34.58 C414.677,34.567 414.275,34.622 413.89,34.74 C413.604,34.845 413.326,34.972 413.06,35.12 L412.41,35.5 C412.208,35.612 411.981,35.67 411.75,35.67 C411.562,35.673 411.379,35.613 411.23,35.5 C411.089,35.402 410.97,35.276 410.88,35.13 L410.35,34.22 L410.35,34.22 Z" id="Fill-47" fill="#193E72"></path>
                <path d="M425.54,34.64 C425.881,33.972 426.358,33.383 426.94,32.91 C427.471,32.488 428.132,32.266 428.81,32.28 C429.294,32.26 429.772,32.389 430.18,32.65 L429.98,34.87 C429.958,34.986 429.898,35.091 429.81,35.17 C429.719,35.233 429.61,35.265 429.5,35.26 C429.322,35.253 429.145,35.233 428.97,35.2 C428.742,35.16 428.511,35.14 428.28,35.14 C427.983,35.135 427.688,35.186 427.41,35.29 C427.155,35.378 426.92,35.518 426.72,35.7 C426.512,35.891 426.33,36.11 426.18,36.35 C426.015,36.634 425.868,36.928 425.74,37.23 L425.74,44.79 L422.79,44.79 L422.79,32.51 L424.52,32.51 C424.908,32.421 425.294,32.663 425.383,33.05 C425.398,33.116 425.404,33.183 425.4,33.25 L425.54,34.64" id="Fill-48" fill="#193E72"></path>
                <g id="Group-52" transform="translate(430.679750, 27.000000)">
                    <mask id="mask-8" fill="white">
                        <use xlink:href="#path-7"></use>
                    </mask>
                    <g id="Clip-50"></g>
                    <path d="M9.41025,8.11 C9.33425,8.206 9.24625,8.293 9.15025,8.37 C9.04025,8.44 8.91125,8.474 8.78025,8.47 C8.62325,8.466 8.47025,8.417 8.34025,8.33 L7.83025,8.02 C7.60225,7.889 7.36125,7.785 7.11025,7.71 C6.78725,7.607 6.44925,7.56 6.11025,7.57 C5.63825,7.559 5.17025,7.654 4.74025,7.85 C4.34525,8.032 4.00125,8.311 3.74025,8.66 C3.46625,9.042 3.26925,9.473 3.16025,9.93 C3.02525,10.486 2.96225,11.057 2.97025,11.63 C2.96225,12.22 3.03325,12.808 3.18025,13.38 C3.29225,13.843 3.49625,14.278 3.78025,14.66 C4.04025,15.004 4.38425,15.276 4.78025,15.45 C5.17725,15.635 5.61225,15.727 6.05025,15.72 C6.43725,15.737 6.82525,15.679 7.19025,15.55 C7.44925,15.45 7.69825,15.322 7.93025,15.17 L8.45025,14.78 C8.59325,14.669 8.76925,14.61 8.95025,14.61 C9.16225,14.6 9.36325,14.702 9.48025,14.88 L10.34025,15.96 C10.03125,16.34 9.67125,16.677 9.27025,16.96 C8.89825,17.211 8.49925,17.419 8.08025,17.58 C7.66925,17.734 7.24425,17.845 6.81025,17.91 C6.37925,17.969 5.94525,17.999 5.51025,18.0000822 C4.77625,18.004 4.04825,17.862 3.37025,17.58 C2.69825,17.298 2.09425,16.875 1.60025,16.34 C1.07725,15.757 0.67225,15.078 0.41025,14.34 C-0.13675,12.649 -0.13675,10.83 0.41025,9.14 C0.65025,8.403 1.03825,7.722 1.55025,7.14 C2.06725,6.566 2.70625,6.115 3.42025,5.82 C4.23125,5.486 5.10325,5.322 5.98025,5.34 C6.80525,5.319 7.62525,5.469 8.39025,5.78 C9.05825,6.076 9.66725,6.489 10.19025,7 L9.41025,8.11" id="Fill-49" fill="#193E72" mask="url(#mask-8)"></path>
                    <path d="M15.06025,6.83 C15.52825,6.388 16.06125,6.02 16.64025,5.74 C17.26625,5.45 17.95025,5.306 18.64025,5.32 C19.25425,5.307 19.86425,5.423 20.43025,5.66 C20.93525,5.888 21.38025,6.231 21.73025,6.66 C22.08625,7.094 22.35525,7.593 22.52025,8.13 C22.70625,8.742 22.79725,9.38 22.79025,10.02 L22.79025,17.83 L19.79025,17.83 L19.79025,10 C19.83325,9.373 19.64825,8.751 19.27025,8.25 C18.87225,7.817 18.29625,7.592 17.71025,7.64 C17.20925,7.634 16.71525,7.75 16.27025,7.98 C15.80225,8.231 15.37425,8.551 15.00025,8.93 L15.00025,17.81 L12.00025,17.81 L12.00025,0 L15.00025,0 L15.06025,6.83" id="Fill-51" fill="#193E72" mask="url(#mask-8)"></path>
                </g>
                <path d="M222.94,17.79 L225.94,17.79 L225.94,5.51 L222.94,5.51 L222.94,17.79 Z M226.3,1.93 C226.302,2.179 226.247,2.425 226.14,2.65 C226.042,2.868 225.903,3.065 225.73,3.23 C225.558,3.406 225.35,3.542 225.12,3.63 C224.887,3.731 224.634,3.782 224.38,3.78 C224.132,3.781 223.887,3.73 223.66,3.63 C223.436,3.542 223.235,3.405 223.07,3.23 C222.897,3.065 222.758,2.868 222.66,2.65 C222.561,2.423 222.509986,2.177 222.509986,1.93 C222.509,1.675 222.56,1.423 222.66,1.19 C222.753,0.963 222.892,0.758 223.07,0.59 C223.237,0.418 223.438,0.281 223.66,0.19 C223.887,0.089 224.132,0.038 224.38,0.04 C224.634,0.037 224.887,0.088 225.12,0.19 C225.348,0.281 225.555,0.417 225.73,0.59 C225.908,0.758 226.047,0.963 226.14,1.19 C226.248,1.421 226.303,1.674 226.3,1.93 L226.3,1.93 Z" id="Fill-53" fill="#193E72"></path>
                <path d="M217.6,18 C216.688,18.062 215.792,17.731 215.14,17.09 C214.533,16.407 214.224,15.511 214.28,14.6 L214.28,7.72 L213.02,7.72 C212.87,7.722 212.723,7.669 212.61,7.57 C212.494,7.442 212.436,7.272 212.45,7.1 L212.45,5.93 L214.45,5.6 L215.08,2.25 C215.106,2.104 215.184,1.972 215.3,1.88 C215.424,1.788 215.576,1.742 215.73,1.75 L217.27,1.75 L217.27,5.62 L220.55,5.62 L220.55,7.72 L217.24,7.72 L217.24,14.38 C217.218,14.704 217.318,15.025 217.52,15.28 C217.718,15.493 217.999,15.61 218.29,15.6 C218.446,15.603 218.601,15.583 218.75,15.54 L219.08,15.4 L219.32,15.26 C219.387,15.22 219.463,15.2 219.54,15.2 C219.615,15.197 219.688,15.218 219.75,15.26 C219.82,15.317 219.88,15.384 219.93,15.46 L220.82,16.9 C220.381,17.264 219.875,17.539 219.33,17.71 C218.772,17.897 218.188,17.995 217.6,18" id="Fill-54" fill="#193E72"></path>
                <path d="M320.23,17.79 L323.23,17.79 L323.23,5.51 L320.23,5.51 L320.23,17.79 Z M323.64,1.93 C323.64,2.177 323.589,2.423 323.49,2.65 C323.385,2.866 323.243,3.062 323.07,3.23 C322.9,3.403 322.696,3.539 322.47,3.63 C322.233,3.731 321.978,3.782 321.72,3.78 C321.472,3.78 321.227,3.729 321,3.63 C320.777,3.539 320.576,3.403 320.41,3.23 C320.24,3.064 320.104,2.867 320.01,2.65 C319.911,2.423 319.859986,2.177 319.859986,1.93 C319.859,1.675 319.91,1.423 320.01,1.19 C320.099,0.964 320.236,0.759 320.41,0.59 C320.579,0.42 320.78,0.284 321,0.19 C321.227,0.09 321.472,0.039 321.72,0.04 C321.978,0.037 322.233,0.088 322.47,0.19 C322.914,0.39 323.27,0.746 323.47,1.19 C323.577,1.422 323.635,1.674 323.64,1.93 L323.64,1.93 Z" id="Fill-55" fill="#193E72"></path>
                <path d="M314.94,18 C314.028,18.062 313.132,17.731 312.48,17.09 C311.877,16.405 311.568,15.511 311.62,14.6 L311.62,7.72 L310.36,7.72 C310.212,7.723 310.069,7.67 309.96,7.57 C309.841,7.443 309.779,7.273 309.79,7.1 L309.79,5.93 L311.79,5.6 L312.41,2.25 C312.439,2.103 312.521,1.971 312.64,1.88 C312.763,1.787 312.916,1.741 313.07,1.75 L314.6,1.75 L314.6,5.62 L317.88,5.62 L317.88,7.72 L314.6,7.72 L314.6,14.38 C314.578,14.704 314.678,15.025 314.88,15.28 C315.078,15.493 315.359,15.61 315.65,15.6 C315.806,15.604 315.961,15.584 316.11,15.54 C316.223,15.5 316.333,15.453 316.44,15.4 L316.68,15.26 C316.748,15.223 316.823,15.202 316.9,15.2 C316.975,15.195 317.049,15.216 317.11,15.26 C317.18,15.317 317.24,15.384 317.29,15.46 L318.18,16.9 C317.743,17.262 317.241,17.537 316.7,17.71 C316.132,17.899 315.538,17.997 314.94,18" id="Fill-56" fill="#193E72"></path>
            </g>
        </g>
    </g>
</svg>