<svg width="344" height="549" viewBox="0 0 344 549" fill="none" xmlns="http://www.w3.org/2000/svg">
<mask id="mask0_493_1345" style="mask-type:alpha" maskUnits="userSpaceOnUse" x="0" y="0" width="467" height="549">
<rect width="467" height="549" fill="#D9D9D9"/>
</mask>
<g mask="url(#mask0_493_1345)">
<path d="M284.86 -27.7186C213.589 -27.7186 155.591 30.2497 155.591 101.53C155.591 172.811 213.589 230.779 284.86 230.779C356.132 230.779 414.129 172.811 414.129 101.53C414.129 30.2497 356.132 -27.7186 284.86 -27.7186ZM284.86 282.959C184.522 282.959 102.902 201.572 102.902 101.575C102.902 1.57716 184.522 -79.8545 284.86 -79.8545C385.198 -79.8545 466.818 1.53265 466.818 101.53C466.818 201.528 385.198 282.915 284.86 282.915" fill="#990066"/>
<path d="M131.069 419.821C87.8293 419.821 52.6886 455.039 52.6886 498.27C52.6886 541.501 87.8293 576.719 131.069 576.719C174.309 576.719 209.404 541.546 209.404 498.27C209.404 454.994 174.264 419.821 131.069 419.821ZM131.069 628.854C58.8078 628.854 0 570.263 0 498.27C0 426.277 58.8078 367.686 131.069 367.686C203.33 367.686 262.138 426.277 262.138 498.27C262.138 570.263 203.33 628.854 131.069 628.854Z" fill="#990066"/>
<path d="M330.843 284.607C276.67 284.607 232.62 328.684 232.62 382.912C232.62 437.141 276.67 481.173 330.843 481.173C385.017 481.173 429.066 437.096 429.066 382.912C429.066 328.728 384.972 284.607 330.843 284.607ZM330.843 533.354C247.603 533.354 179.887 465.858 179.887 382.912C179.887 299.967 247.603 232.471 330.843 232.471C414.083 232.471 481.8 299.967 481.8 382.912C481.8 465.858 414.083 533.354 330.843 533.354Z" fill="#990066"/>
</g>
</svg>
