<svg width="143" height="495" viewBox="0 0 143 495" fill="none" xmlns="http://www.w3.org/2000/svg">
<mask id="mask0_552_5077" style="mask-type:alpha" maskUnits="userSpaceOnUse" x="0" y="0" width="143" height="495">
<rect width="142.576" height="495" fill="#D9D9D9"/>
</mask>
<g mask="url(#mask0_552_5077)">
<path d="M0.0343399 -9.42038C-38.3021 -9.42038 -69.458 17.0833 -69.458 49.618C-69.458 82.1528 -38.3021 108.656 0.0343399 108.656C38.3708 108.656 69.4868 82.1864 69.4868 49.618C69.4868 17.0497 38.3309 -9.42038 0.0343399 -9.42038ZM0.0343399 147.893C-64.0327 147.893 -116.172 103.798 -116.172 49.618C-116.172 -4.56193 -64.0327 -48.6565 0.0343399 -48.6565C64.1013 -48.6565 116.241 -4.56193 116.241 49.618C116.241 103.798 64.1013 147.893 0.0343399 147.893Z" fill="#990066"/>
<path d="M-93.8553 137.482C-157.045 137.482 -208.466 181.108 -208.466 234.752C-208.466 288.395 -157.045 332.021 -93.8553 332.021C-30.6659 332.021 20.7552 288.395 20.7552 234.752C20.7552 181.108 -30.6659 137.482 -93.8553 137.482ZM-93.8553 371.29C-182.815 371.29 -255.18 310.041 -255.18 234.785C-255.18 159.53 -182.815 98.2462 -93.8553 98.2462C-4.89551 98.2462 67.4691 159.496 67.4691 234.752C67.4691 310.007 -4.89551 371.257 -93.8553 371.257" fill="#990066"/>
</g>
</svg>
