<svg width="411" height="495" viewBox="0 0 411 495" fill="none" xmlns="http://www.w3.org/2000/svg">
<mask id="mask0_552_5082" style="mask-type:alpha" maskUnits="userSpaceOnUse" x="0" y="0" width="421" height="495">
<rect width="421" height="495" fill="#D9D9D9"/>
</mask>
<g mask="url(#mask0_552_5082)">
<path d="M486.302 118.881C437.181 118.881 397.186 158.623 397.186 207.517C397.186 256.412 437.181 296.154 486.302 296.154C535.423 296.154 575.418 256.412 575.418 207.517C575.418 158.623 535.423 118.881 486.302 118.881ZM486.302 343.161C410.977 343.161 349.688 282.304 349.688 207.517C349.688 132.73 410.977 71.8733 486.302 71.8733C561.627 71.8733 622.917 132.73 622.917 207.517C622.917 282.304 561.627 343.161 486.302 343.161Z" fill="#990066"/>
<path d="M256.8 -24.9923C192.549 -24.9923 140.264 27.2742 140.264 91.5435C140.264 155.813 192.549 208.079 256.8 208.079C321.051 208.079 373.336 155.813 373.336 91.5435C373.336 27.2742 321.051 -24.9923 256.8 -24.9923ZM256.8 255.127C166.346 255.127 92.7656 181.745 92.7656 91.5837C92.7656 1.42198 166.346 -72 256.8 -72C347.255 -72 420.835 1.38185 420.835 91.5435C420.835 181.705 347.255 255.087 256.8 255.087" fill="#990066"/>
<path d="M118.159 378.528C79.178 378.528 47.4987 410.281 47.4987 449.26C47.4987 488.239 79.178 519.992 118.159 519.992C157.139 519.992 188.778 488.279 188.778 449.26C188.778 410.241 157.099 378.528 118.159 378.528ZM118.159 567C53.0152 567 0 514.172 0 449.26C0 384.348 53.0152 331.52 118.159 331.52C183.302 331.52 236.317 384.348 236.317 449.26C236.317 514.172 183.302 567 118.159 567Z" fill="#990066"/>
<path d="M487.115 347.095C455.598 347.095 430.003 372.747 430.003 404.299C430.003 435.852 455.638 461.503 487.115 461.503C518.591 461.503 544.227 435.852 544.227 404.299C544.227 372.747 518.591 347.095 487.115 347.095ZM487.115 508.511C429.435 508.511 382.504 461.744 382.504 404.299C382.504 346.854 429.435 300.047 487.115 300.047C544.794 300.047 591.725 346.814 591.725 404.299C591.725 461.784 544.794 508.511 487.115 508.511Z" fill="#990066"/>
<path d="M298.255 256.612C249.418 256.612 209.707 296.354 209.707 345.249C209.707 394.143 249.418 433.845 298.255 433.845C347.092 433.845 386.803 394.103 386.803 345.249C386.803 296.394 347.052 256.612 298.255 256.612ZM298.255 480.893C223.215 480.893 162.168 420.036 162.168 345.249C162.168 270.462 223.215 209.605 298.255 209.605C373.296 209.605 434.342 270.462 434.342 345.249C434.342 420.036 373.296 480.893 298.255 480.893Z" fill="#990066"/>
</g>
</svg>
