<svg width="641" height="650" viewBox="0 0 641 650" fill="none" xmlns="http://www.w3.org/2000/svg">
<mask id="mask0_570_8455" style="mask-type:alpha" maskUnits="userSpaceOnUse" x="0" y="0" width="641" height="650">
<rect width="641" height="650" fill="#D9D9D9"/>
</mask>
<g mask="url(#mask0_570_8455)">
<path d="M485.684 200.881C437.029 200.881 397.415 240.623 397.415 289.517C397.415 338.412 437.029 378.154 485.684 378.154C534.338 378.154 573.953 338.412 573.953 289.517C573.953 240.623 534.338 200.881 485.684 200.881ZM485.684 425.161C411.075 425.161 350.367 364.304 350.367 289.517C350.367 214.73 411.075 153.873 485.684 153.873C560.293 153.873 621 214.73 621 289.517C621 364.304 560.293 425.161 485.684 425.161Z" fill="#990066"/>
<path d="M258.359 57.0077C194.719 57.0077 142.93 109.274 142.93 173.544C142.93 237.813 194.719 290.079 258.359 290.079C322 290.079 373.788 237.813 373.788 173.544C373.788 109.274 322 57.0077 258.359 57.0077ZM258.359 337.127C168.764 337.127 95.8828 263.745 95.8828 173.584C95.8828 83.422 168.764 10 258.359 10C347.954 10 420.835 83.3819 420.835 173.544C420.835 263.705 347.954 337.087 258.359 337.087" fill="#990066"/>
<path d="M121.036 460.528C82.4257 460.528 51.0474 492.281 51.0474 531.26C51.0474 570.239 82.4257 601.992 121.036 601.992C159.646 601.992 190.984 570.279 190.984 531.26C190.984 492.241 159.606 460.528 121.036 460.528ZM121.036 649C56.5115 649 4 596.172 4 531.26C4 466.348 56.5115 413.52 121.036 413.52C185.56 413.52 238.072 466.348 238.072 531.26C238.072 596.172 185.56 649 121.036 649Z" fill="#990066"/>
<path d="M486.488 429.095C455.27 429.095 429.918 454.747 429.918 486.299C429.918 517.852 455.31 543.503 486.488 543.503C517.665 543.503 543.057 517.852 543.057 486.299C543.057 454.747 517.665 429.095 486.488 429.095ZM486.488 590.511C429.356 590.511 382.871 543.744 382.871 486.299C382.871 428.854 429.356 382.047 486.488 382.047C543.62 382.047 590.105 428.814 590.105 486.299C590.105 543.784 543.62 590.511 486.488 590.511Z" fill="#990066"/>
<path d="M299.423 338.612C251.05 338.612 211.716 378.354 211.716 427.249C211.716 476.143 251.05 515.845 299.423 515.845C347.796 515.845 387.13 476.103 387.13 427.249C387.13 378.394 347.756 338.612 299.423 338.612ZM299.423 562.893C225.095 562.893 164.629 502.036 164.629 427.249C164.629 352.462 225.095 291.605 299.423 291.605C373.751 291.605 434.217 352.462 434.217 427.249C434.217 502.036 373.751 562.893 299.423 562.893Z" fill="#990066"/>
</g>
</svg>
