<svg xmlns="http://www.w3.org/2000/svg" width="2506" height="865" fill="none" viewBox="0 0 2506 865">
  <path fill="#fff" d="M0 0h2506v865H0z"/>
  <mask id="a" width="641" height="650" x="1281" y="79" maskUnits="userSpaceOnUse" style="mask-type:alpha">
    <path fill="#D9D9D9" d="M1281 79h641v650h-641z"/>
  </mask>
  <g mask="url(#a)">
    <path fill="#906" d="M1766.68 279.881c-48.65 0-88.27 39.742-88.27 88.636 0 48.895 39.62 88.637 88.27 88.637 48.66 0 88.27-39.742 88.27-88.637 0-48.894-39.61-88.636-88.27-88.636Zm0 224.28c-74.61 0-135.31-60.857-135.31-135.644s60.7-135.644 135.31-135.644S1902 293.73 1902 368.517s-60.71 135.644-135.32 135.644Z"/>
    <path fill="#906" d="M1539.36 136.008c-63.64 0-115.43 52.266-115.43 116.536 0 64.269 51.79 116.535 115.43 116.535 63.64 0 115.43-52.266 115.43-116.535 0-64.27-51.79-116.536-115.43-116.536Zm0 280.119c-89.59 0-162.48-73.382-162.48-163.543 0-90.162 72.89-163.584 162.48-163.584 89.6 0 162.48 73.382 162.48 163.544 0 90.161-72.88 163.543-162.48 163.543m-137.32 123.441c-38.61 0-69.99 31.753-69.99 70.732s31.38 70.732 69.99 70.732 69.94-31.713 69.94-70.732-31.37-70.732-69.94-70.732Zm0 188.472c-64.53 0-117.04-52.828-117.04-117.74 0-64.912 52.51-117.74 117.04-117.74 64.52 0 117.03 52.828 117.03 117.74 0 64.912-52.51 117.74-117.03 117.74Zm365.45-219.905c-31.22 0-56.57 25.652-56.57 57.204 0 31.553 25.39 57.205 56.57 57.205 31.17 0 56.57-25.652 56.57-57.205 0-31.552-25.4-57.204-56.57-57.204Zm0 161.416c-57.13 0-103.62-46.767-103.62-104.212 0-57.444 46.49-104.252 103.62-104.252s103.61 46.767 103.61 104.252c0 57.486-46.48 104.212-103.61 104.212Z"/>
    <path fill="#906" d="M1580.42 417.613c-48.37 0-87.7 39.741-87.7 88.636 0 48.894 39.33 88.596 87.7 88.596 48.38 0 87.71-39.742 87.71-88.596 0-48.855-39.37-88.636-87.71-88.636Zm0 224.28c-74.33 0-134.79-60.857-134.79-135.644s60.46-135.644 134.79-135.644c74.33 0 134.8 60.857 134.8 135.644s-60.47 135.644-134.8 135.644Z"/>
  </g>
  <path fill="#906" d="M149.617 360.048c-31.218 0-56.57 25.651-56.57 57.204s25.392 57.204 56.57 57.204c31.177 0 56.569-25.651 56.569-57.204s-25.392-57.204-56.569-57.204Zm0 161.416C92.485 521.464 46 474.697 46 417.252S92.485 313 149.617 313c57.132 0 103.617 46.767 103.617 104.252 0 57.485-46.485 104.212-103.617 104.212Zm247.419-188.456c-38.61 0-69.989 31.753-69.989 70.732s31.379 70.732 69.989 70.732 69.948-31.713 69.948-70.732-31.378-70.732-69.948-70.732Zm0 188.472C332.511 521.48 280 468.652 280 403.74 280 338.829 332.511 286 397.036 286c64.524 0 117.036 52.829 117.036 117.74 0 64.912-52.512 117.74-117.036 117.74Zm278.758-206.472c-48.373 0-87.706 39.742-87.706 88.636s39.333 88.596 87.706 88.596c48.373 0 87.707-39.742 87.707-88.596 0-48.854-39.374-88.636-87.707-88.636Zm0 224.28C601.467 539.288 541 478.431 541 403.644S601.467 268 675.794 268c74.328 0 134.794 60.857 134.794 135.644s-60.466 135.644-134.794 135.644Zm324.686-252.28c-63.644 0-115.433 52.266-115.433 116.536 0 64.269 51.789 116.535 115.433 116.535 63.64 0 115.43-52.266 115.43-116.535 0-64.27-51.79-116.536-115.43-116.536Zm0 280.119c-89.599 0-162.48-73.382-162.48-163.543C838 313.422 910.881 240 1000.48 240c89.59 0 162.47 73.382 162.47 163.544 0 90.161-72.88 163.543-162.47 163.543"/>
  <mask id="b" width="400" height="518" x="2011" y="211" maskUnits="userSpaceOnUse" style="mask-type:alpha">
    <path fill="#D9D9D9" d="M2011 211h400v518h-400z"/>
  </mask>
  <g mask="url(#b)">
    <path fill="#906" d="M2273.04 262.008c-38.61 0-69.99 31.753-69.99 70.732s31.38 70.733 69.99 70.733 69.94-31.714 69.94-70.733c0-39.019-31.37-70.732-69.94-70.732Zm0 188.472c-64.53 0-117.04-52.828-117.04-117.74 0-64.911 52.51-117.74 117.04-117.74 64.52 0 117.03 52.829 117.03 117.74 0 64.912-52.51 117.74-117.03 117.74Z"/>
    <path fill="#906" d="M2178.48 438.008c-63.64 0-115.43 52.266-115.43 116.536 0 64.269 51.79 116.535 115.43 116.535 63.64 0 115.43-52.266 115.43-116.535 0-64.27-51.79-116.536-115.43-116.536Zm0 280.119c-89.6 0-162.48-73.382-162.48-163.543C2016 464.422 2088.88 391 2178.48 391c89.59 0 162.47 73.382 162.47 163.544 0 90.161-72.88 163.543-162.47 163.543"/>
  </g>
</svg>
