<?xml version="1.0" encoding="UTF-8"?>
<svg id="Layer_1" xmlns="http://www.w3.org/2000/svg" viewBox="0 0 480 161">
  <defs>
    <style>
      .cls-1 {
        fill: #26a86c;
      }

      .cls-2 {
        fill: #2ea9b0;
      }
    </style>
  </defs>
  <path class="cls-1" d="M279.87,96.3c-2.45-.55-4.93-.97-7.3-1.84-5.34-1.96-10.14-4.88-14.78-8.09-7.39-5.12-14.25-10.95-21.74-15.93-3.7-2.46-7.54-4.67-11.73-6.21-6.76-2.48-13.51-1.92-20.25.05-8.22,2.4-15.78,6.34-23.35,10.22-6.79,3.49-13.6,6.91-20.97,9.09-7.91,2.34-15.33,1.17-22.45-2.69-4.77-2.59-8.94-5.97-12.94-9.62-6.93-6.34-12.88-13.64-19.66-20.12-3.15-3.01-6.42-5.88-10.23-8.06-1.52-.87-3.14-1.54-4.88-2.19.48-.51.98-.35,1.41-.35,17.69-.07,33.28-5.97,46.91-17.07,4.61-3.75,9.01-7.77,14.06-10.95,5.32-3.36,10.94-5.96,17.17-7.11,7.46-1.38,14.63-.34,21.57,2.59,6.47,2.73,12.08,6.8,17.43,11.28,5.72,4.79,10.41,10.58,15.75,15.72,11.16,10.73,24.09,18.48,39.01,22.83,7.08,2.06,14.29,3.35,21.67,3.79,16,.95,31.25-1.93,45.81-8.6,11.68-5.34,21.83-12.79,30.49-22.22,5.41-5.9,11.04-11.52,17.54-16.23,6.05-4.38,12.56-7.77,19.99-9.16,6.95-1.3,13.68-.49,20.25,2.01,7.34,2.79,13.81,7.07,19.61,12.26,8.59,7.7,18.04,13.84,29.12,17.31,3.7,1.16,7.46,2.08,11.32,2.58.42.05.83.17,1.25.34-7.3.99-12.78,5.17-17.94,9.95-6.86,6.36-12.81,13.6-19.58,20.03-4.82,4.58-9.9,8.83-15.95,11.74-4.41,2.12-9.04,3.46-14,3.13-4.14-.28-8.1-1.4-11.96-2.87-5.8-2.2-11.27-5.11-16.81-7.89-6.75-3.39-13.44-6.91-20.67-9.22-4.17-1.33-8.42-2.24-12.82-2.24s-8.22,1.1-12.04,2.84c-6.45,2.94-12.1,7.13-17.72,11.36-5.9,4.44-11.69,9.05-18.01,12.9-5.16,3.14-10.54,5.71-16.62,6.47-.15.02-.3.11-.44.17h-5.52Z"/>
  <path class="cls-1" d="M74.27,38.95c-5.77.12-11.46.85-17.11,1.96-8.56,1.68-16.88,4.27-25.28,6.56-4.93,1.35-9.86,2.72-15.05,2.66-6.1-.07-9.36-2.63-10.5-8.64-.72-3.75-.68-7.54.27-11.27,1.21-4.77,4.53-7.31,9.44-7.43,8.78-.22,17.12,1.85,25.28,4.78,7.25,2.61,14.43,5.43,21.67,8.08,3.67,1.35,7.47,2.3,11.29,3.3h-.01Z"/>
  <path class="cls-2" d="M421.24,115.63c8.33-.32,16.44-2.74,23.75-7.96,6.46-4.62,13.13-4.01,18.22,1.25,4.81,4.97,5.07,12.98.6,18.43-4.25,5.18-12.02,6.51-17.65,2.62-5.27-3.65-10.79-6.61-17.11-7.79-13.85-2.57-26.16.77-36.96,9.88-3.81,3.22-7,7.04-10.36,10.67-10.05,10.85-27.29,12.57-39.28,6.43-13-6.65-20.69-21.3-18.5-35.18,2.47-15.62,13.47-27.15,28.28-29.48,12.42-1.95,22.83,2.03,31.16,11.32,5.36,5.98,10.86,11.69,18.19,15.28,6.04,2.97,12.41,4.45,19.64,4.51h0Z"/>
</svg>