<?xml version="1.0" encoding="UTF-8"?>
<svg id="Layer_1" xmlns="http://www.w3.org/2000/svg" viewBox="0 0 229 168.5">
  <defs>
    <style>
      .cls-1 {
        fill: #fed47a;
      }

      .cls-2 {
        fill: #6667ad;
      }
    </style>
  </defs>
  <path class="cls-2" d="M77.6,63.49c-12.14.47-23.96,3.99-34.61,11.6-9.42,6.73-19.14,5.84-26.56-1.82-7.01-7.24-7.39-18.9-.88-26.85,6.2-7.55,17.52-9.49,25.72-3.81,7.68,5.32,15.73,9.62,24.94,11.34,20.19,3.75,38.13-1.11,53.86-14.39,5.56-4.69,10.2-10.25,15.1-15.54,14.64-15.8,39.77-18.3,57.24-9.36,18.95,9.69,30.16,31.02,26.96,51.23-3.6,22.75-19.64,39.54-41.22,42.93-18.1,2.84-33.27-2.95-45.41-16.49-7.81-8.71-15.83-17.02-26.51-22.26-8.81-4.32-18.08-6.48-28.62-6.57h0Z"/>
  <path class="cls-1" d="M78.85,86.64c-20.67,0-37.16,16.47-37.02,37.21.13,20.29,16.18,36.91,37.14,36.79,20.8-.12,36.78-16.18,36.86-36.9.08-20.87-16.37-37.08-36.98-37.1Z"/>
</svg>