<?xml version="1.0" encoding="UTF-8"?>
<svg id="Layer_1" xmlns="http://www.w3.org/2000/svg" viewBox="0 0 656 253">
  <defs>
    <style>
      .cls-1 {
        fill: #6667ad;
      }

      .cls-2 {
        fill: #2ea9b0;
      }
    </style>
  </defs>
  <path class="cls-1" d="M656.06,33.23c-4.39,3.5-9.08,6.55-14.32,8.78-10.37,4.42-20.67,4.18-30.92-.41-6.98-3.11-13.08-7.54-18.73-12.6-12.2-10.94-26.39-17.64-42.75-19.21-21.47-2.06-40.52,3.9-56.87,18.03-5,4.33-9.18,9.39-13.16,14.65-3.89,5.15-8.37,9.77-13.75,13.4-11.77,7.97-23.96,7.71-35.51-.59-3.22-2.32-5.95-5.17-8.92-7.78-7.67-6.7-16.58-10.68-26.75-11.62-15.49-1.44-28.8,3.37-39.67,14.43-7.64,7.77-11.9,17.22-13.15,28.02-.11,1,.06,2.01-.24,2.99v3.94-.02c.33,1.87.28,3.76.59,5.64,3.49,21.18,20.46,37.56,41.88,39.94,14.58,1.61,27.47-2.59,38.34-12.5,3.37-3.08,6.66-6.25,10.63-8.6,4.79-2.82,9.88-4.67,15.52-4.67,5.15,0,9.93,1.49,14.4,4.03,6.79,3.88,12.11,9.34,16.84,15.43,2.63,3.39,5.17,6.85,8.15,9.96,5.15,5.38,10.97,9.9,17.48,13.53,9.39,5.23,19.45,8.26,30.17,9.13.3.02.6.12.9.18h10.48c2.63-.43,5.31-.59,7.94-1.07,13.82-2.52,25.96-8.42,36.47-17.69,5.45-4.8,11.16-9.23,17.72-12.47,5.55-2.76,11.37-4.44,17.65-4.49,7.46-.06,14.19,2.2,20.58,5.78,3.17,1.78,6.16,3.84,9,6.1V33.23Z"/>
  <path class="cls-2" d="M656,98.52c-9.35-3.62-19.05-4.27-29.26-1.25-11.76,3.48-22.62,8.93-33.45,14.5-12.08,6.19-24.13,12.47-37.24,16.3-10.75,3.14-21.52,4.04-32.3.08-6.68-2.46-12.81-5.98-18.71-9.91-11.95-7.94-22.89-17.24-34.68-25.41-7.4-5.12-15.06-9.78-23.58-12.9-3.78-1.39-7.74-2.06-11.64-2.93h-8.8c-.22.1-.46.24-.7.27-9.7,1.21-18.28,5.31-26.51,10.32-10.08,6.14-19.32,13.49-28.73,20.58-8.97,6.75-17.98,13.43-28.27,18.12-6.09,2.78-12.46,4.53-19.2,4.53s-13.8-1.45-20.45-3.57c-11.53-3.68-22.2-9.3-32.97-14.71-8.84-4.43-17.56-9.08-26.81-12.59-6.16-2.34-12.47-4.13-19.08-4.58-7.91-.53-15.3,1.61-22.33,4.99-9.65,4.64-17.75,11.42-25.44,18.73-10.8,10.26-20.29,21.8-31.23,31.95-8.23,7.62-16.97,14.29-28.62,15.87.67.27,1.32.46,1.99.54,6.16.8,12.15,2.27,18.06,4.12,17.67,5.53,32.75,15.33,46.45,27.61,9.25,8.28,19.57,15.1,31.28,19.55,10.48,3.99,21.21,5.28,32.3,3.21,11.85-2.22,22.23-7.62,31.89-14.61,10.37-7.51,19.35-16.48,27.98-25.89,13.81-15.04,30-26.93,48.63-35.44,23.22-10.64,47.55-15.23,73.07-13.72,11.77.7,23.27,2.76,34.57,6.05,23.8,6.94,44.42,19.3,62.22,36.42,8.52,8.2,16,17.43,25.12,25.07,8.53,7.15,17.48,13.64,27.8,17.99,11.07,4.67,22.51,6.33,34.4,4.13,9.94-1.83,18.9-5.98,27.39-11.34,6-3.78,11.43-8.31,16.85-12.84v-99.24Z"/>
  <path class="cls-2" d="M44.68,207c18.14,0,32.62-14.46,32.5-32.67-.11-17.81-14.2-32.4-32.6-32.3-18.26.1-32.29,14.21-32.36,32.39-.07,18.32,14.37,32.56,32.47,32.57Z"/>
</svg>