<?xml version="1.0" encoding="UTF-8"?>
<svg id="Layer_1" xmlns="http://www.w3.org/2000/svg" viewBox="0 0 176 99">
  <defs>
    <style>
      .cls-1 {
        fill: #fed47a;
      }

      .cls-2 {
        fill: #2ea9b0;
      }
    </style>
  </defs>
  <path class="cls-1" d="M111.9,50.73c9.59-.37,18.92-3.15,27.32-9.16,7.44-5.32,15.11-4.61,20.97,1.43,5.54,5.72,5.84,14.93.69,21.21-4.89,5.96-13.84,7.49-20.3,3.01-6.06-4.2-12.42-7.6-19.69-8.96-15.94-2.96-30.1.88-42.52,11.37-4.39,3.7-8.05,8.09-11.92,12.27-11.56,12.48-31.4,14.46-45.19,7.4C6.3,81.65-2.54,64.79-.02,48.83,2.83,30.86,15.48,17.59,32.52,14.91c14.29-2.25,26.26,2.33,35.85,13.03,6.17,6.88,12.5,13.45,20.93,17.58,6.95,3.41,14.27,5.12,22.6,5.19h0Z"/>
  <path class="cls-2" d="M138.73,28.03c7.54,0,13.56-6.01,13.51-13.58-.05-7.4-5.9-13.47-13.55-13.42-7.59.04-13.42,5.9-13.45,13.46-.03,7.62,5.97,13.53,13.49,13.54Z"/>
</svg>